<svg xmlns="http://www.w3.org/2000/svg" xmlns:xlink="http://www.w3.org/1999/xlink" viewBox="0 0 1382.09 1301.17"><defs><style>.cls-1{isolation:isolate;}.cls-2{fill:#f2f2f2;}.cls-3{fill:#ececec;}.cls-4{fill:#e1e1e1;}.cls-5{fill:#f5f5f5;}.cls-6{opacity:0.1;}.cls-7{fill:gray;}.cls-8{fill:#364def;}.cls-9{fill:#101323;}.cls-10{fill:#b3b3b3;}.cls-11{fill:#101626;}.cls-12{fill:#fbbd9d;}.cls-13{opacity:0.2;}.cls-14{fill:#fff;}.cls-15{fill:#ffaf9e;}.cls-16{fill:#ff8c79;}.cls-17{fill:#0a0c14;}.cls-18{fill:#ff4f5b;}.cls-19{fill:#1f284c;}.cls-20,.cls-49,.cls-50,.cls-51,.cls-52,.cls-53,.cls-54{fill:#fafafa;}.cls-21{fill:none;}.cls-22{fill:#4b95fa;opacity:0.4;}.cls-23{fill:url(#linear-gradient);}.cls-24{opacity:0.5;mix-blend-mode:lighten;fill:url(#Áåçûìÿííûé_ãðàäèåíò_26);}.cls-25{opacity:0.28;fill:url(#linear-gradient-2);}.cls-26{opacity:0.25;}.cls-27{opacity:0;}.cls-28{opacity:0.05;}.cls-29{opacity:0.1;}.cls-30{opacity:0.14;}.cls-31{opacity:0.19;}.cls-32{opacity:0.24;}.cls-33{opacity:0.29;}.cls-34{opacity:0.33;}.cls-35{opacity:0.38;}.cls-36{opacity:0.43;}.cls-37{opacity:0.48;}.cls-38{opacity:0.52;}.cls-39{opacity:0.57;}.cls-40{opacity:0.62;}.cls-41{opacity:0.67;}.cls-42{opacity:0.71;}.cls-43{opacity:0.76;}.cls-44{opacity:0.81;}.cls-45{opacity:0.86;}.cls-46{opacity:0.9;}.cls-47{opacity:0.95;}.cls-48{fill:url(#linear-gradient-3);}.cls-49,.cls-50,.cls-51,.cls-52,.cls-53,.cls-54{stroke-miterlimit:10;}.cls-49,.cls-50,.cls-51,.cls-52{stroke-width:2px;}.cls-49{stroke:url(#linear-gradient-4);}.cls-50{stroke:url(#linear-gradient-5);}.cls-51{stroke:url(#linear-gradient-6);}.cls-52{stroke:url(#linear-gradient-7);}.cls-53{stroke:#b3b3b3;stroke-width:2.2px;}.cls-53,.cls-54{stroke-linecap:round;}.cls-54{stroke-width:2.5px;stroke:url(#linear-gradient-8);}.cls-55{fill:url(#linear-gradient-9);}.cls-56{fill:url(#linear-gradient-10);}</style><linearGradient id="linear-gradient" x1="326.49" y1="395.15" x2="715.04" y2="395.15" gradientUnits="userSpaceOnUse"><stop offset="0" stop-color="#2479e4"/><stop offset="1" stop-color="#364def"/></linearGradient><radialGradient id="Áåçûìÿííûé_ãðàäèåíò_26" cx="513.94" cy="420.67" r="155" gradientTransform="translate(0 73.54) scale(1 0.83)" gradientUnits="userSpaceOnUse"><stop offset="0" stop-color="#60c4fe"/><stop offset="1" stop-color="#2a023f"/></radialGradient><linearGradient id="linear-gradient-2" x1="326.49" y1="457.55" x2="715.04" y2="457.55" xlink:href="#linear-gradient"/><linearGradient id="linear-gradient-3" x1="489.82" y1="641.19" x2="554.5" y2="641.19" xlink:href="#linear-gradient"/><linearGradient id="linear-gradient-4" x1="597.78" y1="641.19" x2="618.68" y2="641.19" xlink:href="#linear-gradient"/><linearGradient id="linear-gradient-5" x1="624.85" y1="641.19" x2="645.75" y2="641.19" xlink:href="#linear-gradient"/><linearGradient id="linear-gradient-6" x1="353.58" y1="641.19" x2="374.48" y2="641.19" gradientTransform="matrix(-1, 0, 0, 1, 800.12, 0)" xlink:href="#linear-gradient"/><linearGradient id="linear-gradient-7" x1="380.64" y1="641.19" x2="401.54" y2="641.19" gradientTransform="matrix(-1, 0, 0, 1, 800.12, 0)" xlink:href="#linear-gradient"/><linearGradient id="linear-gradient-8" x1="310.78" y1="570.38" x2="449.63" y2="570.38" xlink:href="#linear-gradient"/><linearGradient id="linear-gradient-9" x1="444.83" y1="570.38" x2="451.92" y2="570.38" xlink:href="#linear-gradient"/><linearGradient id="linear-gradient-10" x1="358.17" y1="771.23" x2="674.9" y2="1068.34" xlink:href="#linear-gradient"/></defs><g class="cls-1"><g id="Layer_2" data-name="Layer 2"><g id="Layer_1-2" data-name="Layer 1"><ellipse class="cls-2" cx="686.04" cy="1274.61" rx="582.81" ry="26.55"/><path class="cls-3" d="M1117.52,1047.24c-12.09-6.23-26.32-7-39.74-4.83-7.2,1.2-14.72,3.35-19.62,8.77s-5.84,14.94-.21,19.59c3.36,2.77,8,3.19,12.38,3.14,10.5-.12,22.16-2,30.55,4.35,4.79,3.61,8,9.6,13.7,11.37s11.92-1.57,14.89-6.62,3.06-11.37,1.68-17.07A26.07,26.07,0,0,0,1117.52,1047.24Z"/><path class="cls-3" d="M1145.21,993.79c-7.39,10.56-21.76,7.06-28.42.62s-9.47-15.78-12-24.69c-5.86-20.34-11.76-41.68-7.41-62.4,1.3-6.2,3.62-12.37,8-17s11-7.33,17.17-5.71c7.24,1.91,11.74,9,15,15.75a148.64,148.64,0,0,1,14.7,63.85c0,10.28-1.17,21.06-7,29.55"/><path class="cls-3" d="M1165.5,1008.94c-8-9.53-9.54-23.42-6-35.35s11.63-22.08,20.93-30.36a112.58,112.58,0,0,1,37.48-22.12c5.42-1.9,11.14-3.41,16.86-2.86s11.48,3.47,14.15,8.56c3.94,7.52.16,16.65-3.93,24.09a285.55,285.55,0,0,1-24.62,37.49c-7.38,9.52-15.83,18.9-27.08,23.2s-22.93,3.8-28.89-4"/><path class="cls-4" d="M1145.71,1153c-.14,0-.36-1.7-.67-4.79-.34-3.5-.77-7.88-1.27-13.09a188.89,188.89,0,0,0-3-19.2,147,147,0,0,0-7-22.66,83.33,83.33,0,0,0-11.57-20.51,43.19,43.19,0,0,0-14.63-12.16,40.56,40.56,0,0,0-12.32-3.83c-3.06-.32-4.77-.56-4.77-.69s1.71-.16,4.86-.08a37.5,37.5,0,0,1,12.84,3.34,43.21,43.21,0,0,1,15.44,12.27,81.51,81.51,0,0,1,12,20.92,138.43,138.43,0,0,1,6.93,23,163.57,163.57,0,0,1,2.55,19.44c.42,5.56.57,10.06.65,13.17S1145.84,1153,1145.71,1153Z"/><path class="cls-4" d="M1144.81,1142.94a9.43,9.43,0,0,1-.13-2.23c0-1.67,0-3.77,0-6.36,0-5.52,0-13.52-.28-23.38-.49-19.74-2.19-41-5.47-70.94-3.11-28.16-7.28-60.93-11.68-82.24-1-4.85-1.9-9.21-2.79-13s-1.59-7.13-2.29-9.8c-.6-2.51-1.1-4.56-1.49-6.18a9.84,9.84,0,0,1-.39-2.2,9.26,9.26,0,0,1,.78,2.09l1.84,6.1c.82,2.64,1.66,5.92,2.62,9.73s2,8.16,3.08,13a722.18,722.18,0,0,1,12.29,76.31c3.29,30,4.77,57.34,4.9,77.13.12,9.89-.09,17.9-.35,23.43-.15,2.58-.28,4.69-.38,6.36A10,10,0,0,1,1144.81,1142.94Z"/><path class="cls-4" d="M1144.67,1090.23c-.13,0-.11-2.36,0-6.64s.83-10.45,2-18a236.5,236.5,0,0,1,5.85-26.24,216.26,216.26,0,0,1,11-31c9.1-21.59,21.47-39.24,32.22-50.18a83.65,83.65,0,0,1,7.58-7c1.17-1,2.2-2,3.24-2.74l2.94-2c3.54-2.42,5.53-3.7,5.6-3.59.32.44-7.93,5.29-18.35,16.37s-22.39,28.59-31.42,50a246,246,0,0,0-11,30.76,265.65,265.65,0,0,0-6.23,26c-1.38,7.49-2.17,13.61-2.65,17.84S1144.81,1090.24,1144.67,1090.23Z"/><polygon class="cls-4" points="1195.62 1183.21 1190.34 1255.56 1097.38 1255.56 1092.1 1183.21 1195.62 1183.21"/><rect class="cls-4" x="1081.01" y="1154.69" width="123.58" height="28.52"/><polygon class="cls-3" points="1204.6 1252.79 1204.6 1260.7 1198.79 1260.7 1083.05 1260.7 1083.05 1252.79 1204.6 1252.79"/><polygon class="cls-4" points="1193.1 1274.61 1198.79 1260.7 1087.48 1260.7 1094.12 1274.61 1193.1 1274.61"/><path class="cls-5" d="M1093.83,1206.85a3.07,3.07,0,0,0,.43.67l1.39,1.84,5.42,6.93.24.31.23-.32,13.3-18.4h-.76l13.09,18.54.42.58.45-.54,15.54-18.48-.9,0,.86,1.08c4.81,6,9.48,11.88,13.89,17.41l.46.58.43-.6,13.1-18.54-.76,0,16.14,18.39.28.33.22-.37,5.06-8.49,1.29-2.26a3.69,3.69,0,0,0,.4-.81,3.47,3.47,0,0,0-.54.72l-1.44,2.17-5.3,8.34.5,0c-4.13-4.85-9.52-11.17-15.88-18.61l-.4-.47-.36.5-13.22,18.46.89,0-13.86-17.44-.85-1.08-.44-.55-.46.54-15.49,18.52.87,0-13.23-18.45-.38-.54-.38.54-13,18.6h.47l-5.63-6.76c-.62-.7-1.11-1.28-1.51-1.74A3.64,3.64,0,0,0,1093.83,1206.85Z"/><path class="cls-5" d="M1090.81,1182.73c0,.32,23.29.58,52,.58s52-.26,52-.58-23.28-.58-52-.58S1090.81,1182.41,1090.81,1182.73Z"/><path class="cls-5" d="M1086.11,1261.48c0,.32,25.32.58,56.53.58s56.54-.26,56.54-.58-25.31-.58-56.54-.58S1086.11,1261.16,1086.11,1261.48Z"/><g class="cls-6"><path class="cls-7" d="M1111.3,694.4c.42,0,.76,25.88.76,57.8s-.34,57.8-.76,57.8-.77-25.87-.77-57.8S1110.87,694.4,1111.3,694.4Z"/><path class="cls-7" d="M1096.23,707.1c.43,0,.77,19.76.77,44.13s-.34,44.13-.77,44.13-.76-19.76-.76-44.13S1095.81,707.1,1096.23,707.1Z"/><path class="cls-7" d="M1079.28,719.71c.42,0,.76,14.31.76,31.95s-.34,32-.76,32-.76-14.31-.76-32S1078.86,719.71,1079.28,719.71Z"/><path class="cls-7" d="M1064.5,730.58c.42,0,.76,8,.76,17.82s-.34,17.83-.76,17.83-.76-8-.76-17.83S1064.08,730.58,1064.5,730.58Z"/><path class="cls-7" d="M1051.46,739.27c.42,0,.76,4.38.76,9.79s-.34,9.78-.76,9.78-.77-4.38-.77-9.78S1051,739.27,1051.46,739.27Z"/><path class="cls-7" d="M1036.68,728.84c.42,0,.76,8,.76,17.82s-.34,17.83-.76,17.83-.77-8-.77-17.83S1036.25,728.84,1036.68,728.84Z"/><path class="cls-7" d="M1022.76,714.49c.43,0,.77,15,.77,33.48s-.34,33.47-.77,33.47-.76-15-.76-33.47S1022.34,714.49,1022.76,714.49Z"/><path class="cls-7" d="M1199.17,719.71c.43,0,.77,14.31.77,31.95s-.34,32-.77,32-.76-14.31-.76-32S1198.75,719.71,1199.17,719.71Z"/><path class="cls-7" d="M1184.39,730.58c.43,0,.77,8,.77,17.82s-.34,17.83-.77,17.83-.76-8-.76-17.83S1184,730.58,1184.39,730.58Z"/><path class="cls-7" d="M1171.35,739.27c.42,0,.77,4.38.77,9.79s-.35,9.78-.77,9.78-.76-4.38-.76-9.78S1170.93,739.27,1171.35,739.27Z"/><path class="cls-7" d="M1156.57,723.62c.42,0,.76,10.32.76,23s-.34,23.05-.76,23.05-.76-10.32-.76-23.05S1156.15,723.62,1156.57,723.62Z"/><path class="cls-7" d="M1142.66,714.49c.42,0,.76,15,.76,33.48s-.34,33.47-.76,33.47-.77-15-.77-33.47S1142.24,714.49,1142.66,714.49Z"/><path class="cls-7" d="M1125.7,707.54c.43,0,.77,19.07.77,42.6s-.34,42.61-.77,42.61-.76-19.07-.76-42.61S1125.28,707.54,1125.7,707.54Z"/><path class="cls-7" d="M1215,764.49c-.43,0-.77-8-.77-17.82s.34-17.83.77-17.83.76,8,.76,17.83S1215.4,764.49,1215,764.49Z"/><path class="cls-7" d="M1228,755.79c-.42,0-.77-4.38-.77-9.78s.35-9.78.77-9.78.76,4.38.76,9.78S1228.44,755.79,1228,755.79Z"/><path class="cls-7" d="M1009.15,728.84c.42,0,.76,8,.76,17.82s-.34,17.83-.76,17.83-.77-8-.77-17.83S1008.73,728.84,1009.15,728.84Z"/><path class="cls-7" d="M996.11,737.54c.42,0,.76,4.38.76,9.78s-.34,9.78-.76,9.78-.77-4.38-.77-9.78S995.68,737.54,996.11,737.54Z"/><path class="cls-7" d="M983.09,728.84c.42,0,.77,8,.77,17.82s-.35,17.83-.77,17.83-.76-8-.76-17.83S982.67,728.84,983.09,728.84Z"/><path class="cls-7" d="M969.18,714.49c.42,0,.76,15,.76,33.48s-.34,33.47-.76,33.47-.76-15-.76-33.47S968.76,714.49,969.18,714.49Z"/><path class="cls-7" d="M955.56,728.84c.43,0,.77,8,.77,17.82s-.34,17.83-.77,17.83-.76-8-.76-17.83S955.14,728.84,955.56,728.84Z"/><path class="cls-7" d="M942.52,737.54c.42,0,.77,4.38.77,9.78s-.35,9.78-.77,9.78-.76-4.38-.76-9.78S942.1,737.54,942.52,737.54Z"/><path class="cls-7" d="M1269.36,728.84c.42,0,.77,8,.77,17.82s-.35,17.83-.77,17.83-.76-8-.76-17.83S1268.94,728.84,1269.36,728.84Z"/><path class="cls-7" d="M1255.45,714.49c.42,0,.77,15,.77,33.48s-.35,33.47-.77,33.47-.76-15-.76-33.47S1255,714.49,1255.45,714.49Z"/><path class="cls-7" d="M1241.83,728.84c.43,0,.77,8,.77,17.82s-.34,17.83-.77,17.83-.76-8-.76-17.83S1241.41,728.84,1241.83,728.84Z"/><path class="cls-7" d="M1228.79,737.54c.42,0,.77,4.38.77,9.78s-.35,9.78-.77,9.78-.76-4.38-.76-9.78S1228.37,737.54,1228.79,737.54Z"/><path class="cls-7" d="M1286.35,737.54c.42,0,.77,4.38.77,9.78s-.35,9.78-.77,9.78-.76-4.38-.76-9.78S1285.93,737.54,1286.35,737.54Z"/></g><path class="cls-4" d="M646.93,122.56c-.13-.21,2.18-.42,4.67-3.3a10.2,10.2,0,0,0,2.22-6.36c-.06-2.64-1.31-5.83-2.1-9.38-3.68-14.5-8.88-35-15.28-60.26q-2.38-9.55-5-20-1.31-5.22-2.65-10.64a29.44,29.44,0,0,0-1.5-5.13A8.8,8.8,0,0,0,624,3.87a8.23,8.23,0,0,0-4.8-1.16A45.82,45.82,0,0,0,613.66,4L601.92,7.1l-24.53,6.45L468.16,42.09a8.57,8.57,0,0,0-6.07,9.71Q463.82,59,465.53,66q3.47,14.22,6.82,28l12.86,52.91q.77,3.16,1.53,6.29a9,9,0,0,0,2.57,4.83,8.26,8.26,0,0,0,4.76,2.26c1.73.29,3.5-.37,5.59-.88l23.16-5.94,41.6-10.61,60.29-15.16,16.43-4,4.3-1a5,5,0,0,1,1.49-.21,5.56,5.56,0,0,1-1.41.53l-4.21,1.26L625,128.89,565,145l-41.5,11-23.13,6.09c-1.86.45-4.12,1.32-6.6,1a11.11,11.11,0,0,1-6.44-3,12,12,0,0,1-3.41-6.22q-.78-3.12-1.56-6.28c-4.15-16.85-8.52-34.54-13-52.87q-3.37-13.76-6.87-28-1.74-7.17-3.5-14.44c-1.06-5.63,2.59-11.9,8.42-13.32L576.65,10.7l24.56-6.31,11.77-3A46,46,0,0,1,619,0a10.91,10.91,0,0,1,6.36,1.59,11.49,11.49,0,0,1,4.28,4.76A32.62,32.62,0,0,1,631.28,12c.87,3.61,1.72,7.17,2.56,10.65q2.49,10.44,4.79,20c6,25.35,10.86,46,14.29,60.51.71,3.61,1.85,6.64,1.85,9.68a10.7,10.7,0,0,1-2.68,6.76,9.37,9.37,0,0,1-3.69,2.53A3.75,3.75,0,0,1,646.93,122.56Z"/><polygon class="cls-4" points="561.01 69.66 584.46 76.69 566.92 94.21 549.39 111.73 543.47 87.18 537.56 62.64 561.01 69.66"/><path class="cls-3" d="M272.36,1124.19c81.8-39.71,113.7-132.53,124.45-218.81,1.79-14.4,5.77-29.25.95-42.91s-19.34-24.77-33.13-20.77c-11.44,3.31-18,14.95-25.62,24.23a84.83,84.83,0,0,1-38.71,26.74c-9.87,3.29-21.62,4.39-29.83-2-11.27-8.79-10-26.09-7.66-40.33q6.6-39.8,13.18-79.58c2.35-14.23,4.71-28.77,2.43-43s-10.07-28.35-23-34.3-31-.81-36,12.68c-2.12,5.62-1.9,11.83-3.23,17.68s-5.14,12-11,12.71-11-4.18-14.6-9c-12.42-16.72-19.45-36.84-25.84-56.76s-12.44-40.22-23.29-58-27.32-33.19-47.54-37.59-44,4.73-52.31,23.94.11,41.51,10.27,59.8A321.88,321.88,0,0,0,108,732.5c4,3.91,8.3,8.12,9.18,13.67,1.58,10-8.92,18-18.79,19.63-11.18,1.84-22.53-1.09-33.85-1.55s-24.13,2.52-30,12.35c-8.15,13.64,1.6,30.84,12,42.74a275.88,275.88,0,0,0,73.23,59.38c9.87,5.5,20.36,10.62,27.64,19.33s10.34,22.33,3.64,31.55-20.33,10.36-31,6.57-19.53-11.3-29.36-16.92c-18.41-10.5-43.91-13.18-59.14,1.75-10,9.81-13.21,25.18-11.15,39.11s8.7,26.69,16,38.65c25.52,41.81,61,77.84,103.89,100.82s84.32,33.94,132.09,24.61"/><path class="cls-4" d="M260.76,1128.77c2.3-34.5,3.83-16.6-2-61.9S242.62,972.39,230,921.35q-4.82-19.11-9.5-37.75c-3.15-12.38-6.28-24.67-10.07-36.49a646.41,646.41,0,0,0-25.71-66.69C175.47,759.6,166,740.18,157,722.09s-17.8-34.78-26.43-49.65a511,511,0,0,0-45.89-67.1c-6-7.47-10.87-13.11-14.22-16.89-1.61-1.8-2.87-3.21-3.83-4.27a10.56,10.56,0,0,0-1.37-1.4,9.79,9.79,0,0,0,1.17,1.58L70,588.8c3.21,3.89,7.93,9.64,13.82,17.2a541.21,541.21,0,0,1,45.07,67.39c8.5,14.9,17.14,31.6,26.09,49.7s18.32,37.55,27.44,58.34a653.78,653.78,0,0,1,25.46,66.49c3.76,11.76,6.84,23.94,10,36.36s6.29,25,9.49,37.73c12.64,51,23.1,100,29,145.19s4.59,27.07,2.54,61.45"/><path class="cls-4" d="M209.65,846.89c.18.05,1-2,2.36-5.86s3.18-9.4,5.31-16.34c4.28-13.87,9.52-33.22,15.23-54.57s11.21-40.58,15.68-54.34c2.22-6.89,4.06-12.45,5.39-16.27s1.95-6,1.78-6.06-1.13,2-2.74,5.69-3.75,9.19-6.2,16c-5,13.66-10.76,32.88-16.47,54.26-5.58,21.09-10.62,40.17-14.47,54.74-1.78,6.58-3.29,12.12-4.49,16.56C210,844.63,209.48,846.83,209.65,846.89Z"/><path class="cls-4" d="M31.92,783.5c0,.18,2.53.9,7.17,2s11.35,2.82,19.58,5.12c16.48,4.48,39.05,11.47,63.6,20.27s46.42,17.79,62.05,24.73c7.84,3.41,14.12,6.34,18.46,8.34s6.79,3,6.87,2.89-2.2-1.52-6.41-3.83-10.38-5.49-18.14-9.14c-15.48-7.39-37.32-16.65-61.94-25.52a656.92,656.92,0,0,0-64-19.58c-8.32-2.07-15.12-3.45-19.83-4.3S32,783.32,31.92,783.5Z"/><path class="cls-4" d="M257.05,1063.14a9.37,9.37,0,0,0,1.61-2l4.19-6.13c3.61-5.34,8.64-13.2,14.72-23,12.18-19.58,28.15-47.15,45.36-77.82s32.91-58.36,44.66-78.16c5.75-9.62,10.47-17.54,14-23.42l3.77-6.4a9.38,9.38,0,0,0,1.16-2.33,10,10,0,0,0-1.61,2L380.71,852c-3.61,5.34-8.64,13.2-14.72,23-12.18,19.58-28.15,47.15-45.36,77.83S287.72,1011.19,276,1031c-5.75,9.62-10.47,17.54-14,23.42l-3.77,6.39A9.78,9.78,0,0,0,257.05,1063.14Z"/><path class="cls-4" d="M26.12,946a9.89,9.89,0,0,0,2.26,1.38l6.69,3.49,24.72,12.6c20.87,10.64,49.53,25.67,81.18,42.31s60.48,31.44,81.58,41.65c10.55,5.11,19.12,9.15,25.11,11.83l6.9,3a9.23,9.23,0,0,0,2.49.89,9.89,9.89,0,0,0-2.26-1.38l-6.69-3.49-24.72-12.6c-20.87-10.64-49.53-25.67-81.19-42.32s-60.47-31.42-81.56-41.63c-10.55-5.11-19.13-9.16-25.11-11.84l-6.91-3A9.71,9.71,0,0,0,26.12,946Z"/><path class="cls-8" d="M122.55,898.17s18.93-12.77,42.59,32.58,32.69,71.54,32.69,71.54,6.23,9.49,12.73,3.19,15.32-24.09,26.49-21c11.6,3.19,15.52,16.06,13.5,35s-4.94,60.73-5.19,64.5,1.93,9.15,7,5.56,34.43-36.85,49.38-22,.62,66.8-.84,72.51-.32,8.13,2.4,9.51,11.51-10.72,20.24-19.84,20.44-18.17,28.34-8.87S362.7,1169,326.3,1232.53l-18.8,28.31-34.1-1.57c-72.76-7.81-102.53-32.94-105.41-44.8s11.32-16,23.83-17.73,27.47-1.72,28-4.74-.82-5.35-6.3-7.52-55.94-21.07-59.19-41.9,40.89-25,46.8-27,2.78-7-.37-9-38.7-24.17-55.26-33.67-24.66-20.24-20.44-31.5c4.06-10.86,23.64-7.55,32.56-9.11s4.89-12.18,4.89-12.18-15.9-22.7-38.72-68.47-.79-53.69-.79-53.69"/><path class="cls-9" d="M143.8,938.75a5,5,0,0,1,.48.81l1.28,2.42c1.13,2.21,2.75,5.35,4.81,9.36,4.17,8.22,10.16,20,17.54,34.51l58.32,113.64c22.88,44.34,43.39,84.58,58,113.83L301.4,1248l4.58,9.48,1.17,2.48a5.1,5.1,0,0,1,.35.86,4.75,4.75,0,0,1-.47-.8l-1.28-2.42c-1.14-2.21-2.75-5.35-4.81-9.37-4.18-8.21-10.16-20-17.54-34.51-14.82-29.14-35.47-69.3-58.34-113.65s-43.38-84.57-58-113.82c-7.23-14.6-13.08-26.44-17.17-34.7l-4.59-9.48-1.16-2.47A5,5,0,0,1,143.8,938.75Z"/><path class="cls-9" d="M225.72,1009.86c.19,0-.6,3.45-1.87,8.94-1.34,5.84-3,13.27-4.92,21.48-1.9,8.39-3.68,16-5.14,21.45-.73,2.73-1.37,4.92-1.86,6.43a8.53,8.53,0,0,1-.91,2.29c-.18,0,.65-3.44,1.87-8.94,1.29-5.86,2.94-13.29,4.76-21.52,1.9-8.4,3.78-16,5.29-21.42.76-2.72,1.4-4.91,1.9-6.41A8.41,8.41,0,0,1,225.72,1009.86Z"/><path class="cls-9" d="M207.91,1071.09c-.1.35-15.69-3.67-34.82-9s-34.57-9.89-34.48-10.24,15.69,3.66,34.83,9S208,1070.73,207.91,1071.09Z"/><path class="cls-9" d="M251.93,1147.41a9.15,9.15,0,0,1-2.49.37c-1.6.16-3.93.31-6.81.47-5.76.28-13.74.47-22.54.21s-16.76-.87-22.5-1.49c-2.86-.3-5.18-.6-6.77-.84a8.92,8.92,0,0,1-2.47-.52c0-.19,3.58.06,9.32.44s13.68.85,22.46,1.09,16.71.22,22.47.17S251.92,1147.22,251.93,1147.41Z"/><path class="cls-9" d="M280.23,1095.57c.16.09-1.31,3-3.82,7.74s-6,11.14-10,18.22-7.65,13.45-10.37,18-4.47,7.37-4.63,7.28,1.32-3,3.82-7.73,6.05-11.15,10-18.23,7.66-13.45,10.37-18S280.07,1095.48,280.23,1095.57Z"/><path class="cls-9" d="M327.66,1158a13.41,13.41,0,0,1-1.26,2.69l-3.85,7.11c-3.3,6-7.93,14.18-13.12,23.2s-10,17.16-13.47,23l-4.21,6.89a12.41,12.41,0,0,1-1.7,2.44,14.18,14.18,0,0,1,1.26-2.69l3.85-7.11c3.3-6,7.93-14.18,13.12-23.2s10-17.16,13.47-23l4.21-6.9A12.41,12.41,0,0,1,327.66,1158Z"/><path class="cls-9" d="M290.51,1221.56a14.75,14.75,0,0,1-3.17.26c-2,.09-5,.15-8.66.18-7.31,0-17.42-.11-28.57-.74s-21.22-1.57-28.48-2.43c-3.63-.42-6.56-.82-8.59-1.13a15,15,0,0,1-3.12-.61,14.8,14.8,0,0,1,3.18.1l8.62.72c7.28.62,17.34,1.42,28.46,2s21.21.93,28.51,1.13l8.65.24A14.45,14.45,0,0,1,290.51,1221.56Z"/><path class="cls-4" d="M126.27,340.93c-2.07,0-3.74-21.74-3.74-48.55s1.67-48.55,3.74-48.55S130,265.57,130,292.38,128.34,340.93,126.27,340.93Z"/><path class="cls-4" d="M99.49,314.14c-2.07,0-3.75-10.34-3.75-23.1s1.68-23.1,3.75-23.1,3.74,10.34,3.74,23.1S101.55,314.14,99.49,314.14Z"/><path class="cls-4" d="M72.62,306.66c-2.06.1-4-5.23-4.33-11.91s1.09-12.18,3.15-12.28,4,5.23,4.33,11.91S74.69,306.56,72.62,306.66Z"/><path class="cls-4" d="M154.24,317.4c-2.06,0-3.5-12.44-3.2-27.69s2.21-27.59,4.28-27.55,3.5,12.44,3.2,27.7S156.31,317.44,154.24,317.4Z"/><path class="cls-4" d="M184.64,307.26c-2.07,0-3.74-5.42-3.74-12.1s1.67-12.09,3.74-12.09,3.74,5.41,3.74,12.09S186.71,307.26,184.64,307.26Z"/><path class="cls-4" d="M222.44,295.16s-.08-.53-.16-1.55-.17-2.61-.3-4.57c-.07-1-.13-2.13-.21-3.36s-.4-2.56-.61-4a71.48,71.48,0,0,0-2-9.92,91.55,91.55,0,0,0-10.67-25.48,96,96,0,0,0-64.58-45,88.4,88.4,0,0,0-12.08-1.39c-2.06-.07-4.13-.27-6.22-.24l-6.32.33c-1.06.07-2.13.07-3.19.21l-3.19.49c-2.12.35-4.28.6-6.42,1-4.22,1.15-8.58,2-12.73,3.74A99,99,0,0,0,81.3,211c-2,1.09-4,2.36-6,3.55a47.45,47.45,0,0,0-5.75,4,106.48,106.48,0,0,0-10.83,9.2,108.36,108.36,0,0,0-9.35,11.06A92.4,92.4,0,0,0,35.78,265a94.5,94.5,0,0,0,0,60.22,92.33,92.33,0,0,0,13.64,26.3,108.48,108.48,0,0,0,9.35,11.07c3.56,3.21,6.95,6.54,10.83,9.2a49.64,49.64,0,0,0,5.76,4c2,1.18,3.93,2.45,6,3.55a99.72,99.72,0,0,0,12.45,5.47c4.15,1.74,8.51,2.59,12.73,3.74,2.14.45,4.3.69,6.42,1.05l3.19.49c1.06.14,2.13.13,3.19.21l6.32.32c2.09,0,4.17-.16,6.23-.23a88.4,88.4,0,0,0,12.08-1.4,96,96,0,0,0,64.58-45,91.79,91.79,0,0,0,10.66-25.48,71.48,71.48,0,0,0,2-9.92c.21-1.45.48-2.78.61-4s.14-2.35.21-3.36q.2-2.94.3-4.56c.08-1,.16-1.56.16-1.56s0,.53,0,1.56-.09,2.61-.15,4.58c0,1-.09,2.14-.14,3.38s-.35,2.57-.54,4a69.59,69.59,0,0,1-1.89,10,91.12,91.12,0,0,1-10.5,25.77,96.69,96.69,0,0,1-65.07,45.75c-4,.58-8,1.42-12.24,1.45-2.08.08-4.19.29-6.31.26l-6.4-.31c-1.08-.07-2.17-.07-3.24-.2l-3.23-.49c-2.16-.35-4.35-.6-6.52-1.05-4.28-1.15-8.71-2-12.92-3.76a101.9,101.9,0,0,1-12.65-5.53c-2-1.11-4-2.4-6-3.6a48.59,48.59,0,0,1-5.85-4,108.39,108.39,0,0,1-11-9.33,109.36,109.36,0,0,1-9.51-11.22,93.51,93.51,0,0,1-13.87-26.7,96,96,0,0,1,0-61.16,94,94,0,0,1,13.88-26.69,108.1,108.1,0,0,1,9.5-11.21,108.39,108.39,0,0,1,11-9.33,49.06,49.06,0,0,1,5.86-4c2-1.2,4-2.49,6-3.59a99.75,99.75,0,0,1,12.64-5.54c4.21-1.74,8.64-2.61,12.92-3.76,2.17-.44,4.36-.69,6.52-1l3.23-.49c1.07-.14,2.16-.13,3.23-.2l6.41-.32c2.12,0,4.22.18,6.31.26a90.61,90.61,0,0,1,12.23,1.45,96.69,96.69,0,0,1,65.07,45.75,90.88,90.88,0,0,1,10.51,25.77,69.45,69.45,0,0,1,1.89,10c.19,1.46.43,2.8.54,4s.1,2.36.14,3.37c.06,2,.12,3.49.15,4.58S222.44,295.16,222.44,295.16Z"/><g class="cls-6"><path class="cls-7" d="M1317.69,461.71c-13.2,0-25.42.48-36.76,1.39-144.84,11.6-145.68,92.81-181.45,129.85a63.78,63.78,0,0,1-6.15,5.61c-9.94,7.93-22.61,12.74-40.75,12.74-94,0-75.95-86.91-144.86-86.91-76.74,0-11,209.08-165.22,209.08a105,105,0,0,1-26.42-3.19,88.5,88.5,0,0,1-10.22-3.3c-88.94-34.84-74-198.28-174.7-198.28a153.67,153.67,0,0,0-16.7.86c-1.64.18-3.24.38-4.79.62C433,541.64,459.07,616,365.85,616c-15.9,0-28.23-3.78-38.78-10.1a85.52,85.52,0,0,1-12.72-9.42h0c-41.86-37-63.7-114.37-226.3-122.35q-11.37-.54-23.67-.64c81.1,0,129.89-20.19,163.09-47.32h0c68.12-55.67,70.62-140.61,151.69-140.61,34.34,0,54,10.75,67.84,25.26,1.83,1.91,3.56,3.89,5.21,5.93,24.31,29.93,31.25,70.62,86.69,70.62,79.46,0,61.22-180,142.13-213.83a66.82,66.82,0,0,1,9.82-3.23,77.4,77.4,0,0,1,18.76-2.2c114.32,0,66.56,184,184,184,55.83,0,71-49.13,122.42-60.91,2.05-.47,4.17-.89,6.35-1.23a106.42,106.42,0,0,1,16.89-1.29c92,0,26.68,145.76,220,169.71A476.68,476.68,0,0,0,1317.69,461.71Z"/><path class="cls-7" d="M452.21,316.74c-1.65-2-3.38-4-5.21-5.93-6.53-28.91-15.95-63.78-43.83-79-33.34-18.21-71.66,5.3-91,33.07-11.13,16-18.71,34.11-26,52.08-5.35,13.11-11.09,26-16.87,38.9-11.37,25.38-22.14,50.76-41.82,70.31h0c-33.2,27.13-82,47.32-163.09,47.32q12.31.09,23.67.64c-8,.56-15.93.95-23.67,1.26-2.45.1-2.44-3.71,0-3.81a526,526,0,0,0,55.78-4.88c43.68-6.45,89.65-20.42,117.09-57.35,9.23-12.42,15.94-26.4,22.18-40.49,10.33-23.32,20.1-46.87,30.32-70.23,13.46-30.78,32.48-60.72,65.49-72.8,29-10.64,57.65.79,74.14,26.23C442.11,271.71,446.92,294.31,452.21,316.74Z"/><path class="cls-10" d="M64.37,473.49c81.1,0,129.89-20.19,163.09-47.32a108.46,108.46,0,0,1-9,8c-36,28.53-84.73,36.83-130.42,40Q76.67,473.59,64.37,473.49Z"/><path class="cls-7" d="M1022.39,290c-2.18.34-4.3.76-6.35,1.23-14.6-6-30.75-6.08-44.56,2.74-13.3,8.47-22.44,21.84-34.25,32.05-10.93,9.45-24,15.23-38.69,14-14.83-1.25-28.64-8.48-39.7-18.21-27.44-24.17-33.55-62.64-44-95.8-9.89-31.49-28.46-67.42-64.46-73.31-21.85-3.57-42.62,4.33-59.56,17.62a66.82,66.82,0,0,0-9.82,3.23,97.84,97.84,0,0,1,22.88-16.09c27.82-14.07,60.14-12.14,83,10.19,24.61,24,31.77,58.79,41.29,90.45,10.19,33.87,29.42,73.92,69.46,78,36.12,3.71,49-34.67,77.05-48.37C990.54,280,1007.49,282.4,1022.39,290Z"/><path class="cls-10" d="M681,173.53a66.82,66.82,0,0,1,9.82-3.23,118.05,118.05,0,0,0-28.4,32.58C643,235.8,636.63,274.16,624.73,310c-10.51,31.75-26.21,64.31-55.66,82.46-25.28,15.58-58.9,19.66-83.46.49-24.25-18.93-31.8-51.75-38.17-80.22-.14-.65-.29-1.3-.44-2,1.83,1.91,3.56,3.89,5.21,5.93,1.85,7.85,3.76,15.7,6.09,23.38,4.74,15.65,11.27,31.44,22.65,43.49a59.12,59.12,0,0,0,44.74,18.58c36.87-.84,65.34-27.77,81.37-58.89,17.41-33.78,23.32-71.82,36.08-107.33C651.49,212.77,663.24,190.21,681,173.53Z"/><path class="cls-10" d="M1318.45,463.67c-12.51,0-25-.17-37.52-.57q-9.51-.3-19-.8c-28.88-1.55-58-4.39-86.15-11.46-19.67-4.95-39.21-12.19-55.84-24-15.58-11.07-27-25.63-35.82-42.46-17.11-32.6-27.76-72.47-62.84-90.74-1.72-.9-3.46-1.7-5.22-2.42,2.05-.47,4.17-.89,6.35-1.23a89.41,89.41,0,0,1,29.91,25.32c20.09,26.51,27.12,60.52,47.33,86.88,11.1,14.49,26,25.34,42.44,33,21.94,10.25,46.15,15.36,70,18.7,15.65,2.19,31.4,3.6,47.19,4.5,19.71,1.12,39.47,1.44,59.17,1.46C1320.9,459.87,1320.9,463.68,1318.45,463.67Z"/><path class="cls-7" d="M514.46,529.56c-25,39.34-33.33,94.56-78.89,116.09-21.95,10.37-46.79,7.16-68.15-3.13-21.61-10.43-38.41-27.41-53.07-46a85.52,85.52,0,0,0,12.72,9.42c1.5,1.7,3,3.39,4.6,5,18.09,19.14,42.23,35.11,69.15,37.18,27.18,2.1,49.69-12.82,65.27-34.09,18.08-24.68,27.44-57.27,43.58-83.86C511.22,529.94,512.82,529.74,514.46,529.56Z"/><path class="cls-10" d="M327.07,605.91a85.52,85.52,0,0,1-12.72-9.42h0q-2.13-2.7-4.2-5.45c-30.64-40.56-62-97.91-119.73-100.07-2.44-.09-2.45-3.91,0-3.81a87.85,87.85,0,0,1,33.36,8.08C271.91,517.19,293.65,568.1,327.07,605.91Z"/><path class="cls-7" d="M1099.48,593c-3.82,13.42-9.1,26.2-18,37.36-13.09,16.47-34.49,30-56.27,25.16-19-4.19-31-21.31-42.47-35.56-12.09-15-28.83-31.81-49.73-22-26,12.21-28.65,44.42-32.45,69.16-3.67,23.85-12.52,44.92-30.12,61.86a112.2,112.2,0,0,1-59.68,29.79c-38,6-75.85-7.63-104.93-31.74a88.5,88.5,0,0,0,10.22,3.3c37,26.51,86.63,35.44,128.08,13.12,21-11.34,38.72-29.73,46.93-52.39,9.15-25.28,5.25-54.52,20.15-77.81,10.74-16.79,30.19-27.7,49.58-18.44,16.61,7.92,26.31,25.74,38.2,38.92,6.46,7.17,13.94,13.9,23.26,17,11.84,4,24.5,1.38,35.2-4.59,18.79-10.49,29.3-28.13,35.85-47.55A63.78,63.78,0,0,0,1099.48,593Z"/><path class="cls-10" d="M700.7,717.54a141.07,141.07,0,0,0,15.38,12.74,88.5,88.5,0,0,1-10.22-3.3,157.1,157.1,0,0,1-25.12-26.25c-15.62-20.66-26.35-44.81-32.75-69.84-7.12-27.86-6.36-56.95-13.32-84.79-5.93-23.73-20.55-49.19-45.86-55.81-26.56-6.93-53.22,10.5-68.61,30.94q-3,4-5.74,8.33c-1.64.18-3.24.38-4.79.62,10.39-17.12,23.58-31.75,43.68-40.21,20.95-8.81,43.78-5.35,60.45,10.31,18.45,17.32,25.28,42.33,28.54,66.6,2,15.21,3,30.55,5.61,45.67a222.37,222.37,0,0,0,9.87,37.37C667,675.19,681.18,698.92,700.7,717.54Z"/><path class="cls-10" d="M1172.48,476.28c-12.1.07-23.19,4.9-32.3,12.74-30.78,26.51-30.37,67.59-40.7,103.93a63.78,63.78,0,0,1-6.15,5.61c1.9-5.64,3.47-11.44,4.82-17.26,5.88-25.39,8.68-52.17,22.57-74.83,11.28-18.4,29.21-33.88,51.76-34A1.91,1.91,0,0,1,1172.48,476.28Z"/><circle class="cls-7" cx="1364.97" cy="463.67" r="17.11"/><circle class="cls-7" cx="17.11" cy="473.4" r="17.11"/></g><path d="M929.26,341.34c-1.07-6.88-7.26-12.17-14-13.83s-13.92-.27-20.48,2.07c-7.35,2.62-14.39,6.52-19.7,12.26s-8.74,13.43-8.32,21.23c.39,7.31,4,14.64,2,21.68-1.55,5.34-6.07,9.23-10.6,12.45s-9.44,6.25-12.49,10.89-3.55,11.57.57,15.31c3.66,3.32,10.24,3.7,11.79,8.4,1,2.92-.67,6-1.57,8.9-1.89,6.2-.42,13.13,3,18.64s8.64,9.74,14.29,12.93c9.91,5.59,22.26,8.21,32.73,3.74a31.56,31.56,0,0,0,12.9-10.59c5.5-7.59,8-17.05,8.54-26.4s-.62-18.72-1.82-28"/><path class="cls-11" d="M906.86,349.63c2.61-7.4-3.57-14.06-10.63-15.24-6.47-1.08-13.1,2.06-17,7.23a16.72,16.72,0,0,0-3.33,9.3c-.21,4.38,1,8.65,2,12.89a31,31,0,0,1,.64,12.32,28.24,28.24,0,0,1-4.06,10.31,26.88,26.88,0,0,1-7.91,8c-3.49,2.26-7.51,3.51-11,5.79-2.85,1.87-5.5,4.65-6.16,8.11-.63,3.28.71,6.34,2.84,8.78,2.36,2.71,5.45,4.52,8.39,6.52s6.28,4.56,7.4,8.14c1.25,4-1.14,7.61-2.32,11.29a10.94,10.94,0,0,0,1.18,9.6,26.1,26.1,0,0,0,7.41,7,89,89,0,0,0,10.92,6.49c6.79,3.34,14.8,5.11,22,1.9a13.26,13.26,0,0,0,4.22-3c.64-.67-.3-1.56-1-1-5.88,4.79-13.65,4.85-20.52,2.37a62.54,62.54,0,0,1-11.12-5.73,47.26,47.26,0,0,1-8.62-6.09c-2.53-2.46-4.3-5.7-3.72-9.31.56-3.46,2.7-6.45,3.13-9.95.83-6.83-5.67-11.06-10.62-14.3-2.86-1.87-5.84-4.06-7.49-7.12-1.86-3.46-.94-7.25,1.61-10.08s6.2-4.38,9.62-6a31.35,31.35,0,0,0,8.58-5.71,29.26,29.26,0,0,0,8.56-17.34,32,32,0,0,0-.74-10.64c-.9-4.15-2.19-8.3-2.16-12.59A16.92,16.92,0,0,1,888.36,336c7-2.5,15.8.2,18.26,7.69a9.8,9.8,0,0,1,.13,5.87.06.06,0,0,0,.11,0Z"/><path class="cls-11" d="M901.42,355.34c-.65-3.78-4.81-5.58-8.32-5.29-4.31.37-7.36,3.89-8.71,7.77-3.9,11.24,6,21.75,3.77,33.05-1,5.11-3.83,9.62-6.22,14.17a40,40,0,0,0-4.7,14.16,35.17,35.17,0,0,0,8.69,27.33c7,7.7,18.35,12.76,28.82,10.89.5-.09.37-.87-.12-.88-9.16-.13-18.11-2.62-25.06-8.81a33.4,33.4,0,0,1-7.84-38.56c1.93-4.24,4.45-8.18,6.26-12.48a24,24,0,0,0,1.69-13.95c-1-5.35-3.35-10.32-4.27-15.68-.86-5-.11-11.31,4.54-14.35a7.7,7.7,0,0,1,11,2.81c.12.25.47.06.43-.18Z"/><path class="cls-8" d="M891.9,375.29c-4.19-1.58-6.43-6.52-6-11s3-8.45,6.1-11.72a41.51,41.51,0,0,1,12.41-9.1c3.41-1.63,7.61-2.73,10.84-.77,2.61,1.59,3.83,4.89,3.61,7.94a17.93,17.93,0,0,1-3.32,8.43,41.44,41.44,0,0,1-16.92,14.62,10.91,10.91,0,0,1-4.07,1.23,4.61,4.61,0,0,1-3.84-1.5"/><polygon class="cls-12" points="1011.52 1149.51 964.92 1222.39 936.19 1202.12 973.05 1120.18 1011.52 1149.51"/><path class="cls-8" d="M928.63,1207.11c1.92-10.15,7.56-17.84,14.12-25.81a4.68,4.68,0,0,1,1.55-1.36,1.27,1.27,0,0,1,1.33.29c22.45,20,24.87,4.86,39.63,11.32a3.65,3.65,0,0,1,2.13,3c.73,7.87,1.7,15.84,5.08,23,6.44,13.55,20.61,22.06,27.48,35.38,2.23,4.33,3.47,10,.32,13.74Z"/><path class="cls-13" d="M928.63,1207.11c1.92-10.15,7.56-17.84,14.12-25.81a4.68,4.68,0,0,1,1.55-1.36,1.27,1.27,0,0,1,1.33.29c22.45,20,24.87,4.86,39.63,11.32a3.65,3.65,0,0,1,2.13,3c.73,7.87,1.7,15.84,5.08,23,6.44,13.55,20.61,22.06,27.48,35.38,2.23,4.33,3.47,10,.32,13.74Z"/><path class="cls-9" d="M916,1235.71h114.54a0,0,0,0,1,0,0v5.66a2.83,2.83,0,0,1-2.83,2.83H918.83a2.83,2.83,0,0,1-2.83-2.83v-5.66A0,0,0,0,1,916,1235.71Z" transform="translate(1118.89 2809.53) rotate(-147.17)"/><path class="cls-13" d="M916,1235.71h114.54a0,0,0,0,1,0,0v5.66a2.83,2.83,0,0,1-2.83,2.83H918.83a2.83,2.83,0,0,1-2.83-2.83v-5.66A0,0,0,0,1,916,1235.71Z" transform="translate(1118.89 2809.53) rotate(-147.17)"/><path class="cls-14" d="M1002,1232.06a.12.12,0,0,0,0-.24.12.12,0,0,0,0,.24Z"/><path class="cls-14" d="M1003.15,1232.07c0-1.33-1.56-1.8-2.66-1.93a5.67,5.67,0,0,0-3,.51,4.72,4.72,0,0,0-2.2,1.94,6.14,6.14,0,0,0-.52,1.37,1.67,1.67,0,0,0,.48,1.73.76.76,0,0,0,.88.12s.26-.12,0,0l.32-.13a1.68,1.68,0,0,0,.63-.69,3.78,3.78,0,0,1,.26-.43c.17-.25,0,0,0,0a1.86,1.86,0,0,1,.19-.22c.23-.25.45-.52.69-.75l.19-.17c.22-.19,0,0,0,0a4.51,4.51,0,0,0,.47-.3,1.29,1.29,0,0,1,.23-.12s-.25.1,0,0a3.8,3.8,0,0,1,.51-.14.8.8,0,0,1,.26,0c-.32,0,0,0,.06,0h.54s.34,0,.14,0,.1,0,.14,0a4.79,4.79,0,0,0,.76.1l.3,0c-.24,0,.1,0,.15,0a1.33,1.33,0,0,0,.82-.21.78.78,0,0,0,.4-.69Z"/><path class="cls-14" d="M997.34,1224.51a2.81,2.81,0,0,0-.08-.31c0-.11-.17-.46,0,0-.08-.29,0-.55-.21-.84a2.75,2.75,0,0,0-.72-.68,4.37,4.37,0,0,0-.65-.4,2.5,2.5,0,0,0-.74-.3,7.53,7.53,0,0,0-.83-.1,6.54,6.54,0,0,0-4,1,2.07,2.07,0,0,0-.57,3,1.9,1.9,0,0,0,1.34.77,2.05,2.05,0,0,0,1.73-.56l.19-.16-.41.32a4.63,4.63,0,0,1,.94-.55l-.48.2a5,5,0,0,1,1.21-.33l-.51.07a5.78,5.78,0,0,1,.71,0,8,8,0,0,0,1.1-.11l-.47.06a5.76,5.76,0,0,0,1.45-.15c.12-.06.7-.49.4-.25l-.07,0c-.18.07-.22.09-.13.07s.23,0,.09,0,.14,0,.16,0a.61.61,0,0,0,.59-.77Z"/><path class="cls-14" d="M992.38,1216.69c0-.15.09-.4.08-.59a2.14,2.14,0,0,0-.28-.92,3.47,3.47,0,0,0-1.93-1.3,6,6,0,0,0-4.41.46,7.52,7.52,0,0,0-3.22,2.9,2.34,2.34,0,0,0-.37.8l-.07.53c0-.24,0-.28,0-.13a3.1,3.1,0,0,0-.31.87,2.5,2.5,0,0,0-.16.73c0,.2.06.4.07.6a2.91,2.91,0,0,0,0,.93.61.61,0,0,0,.73.41,1.67,1.67,0,0,0,.64-.28c.3-.2.64-.25.94-.48.47-.35.88-.78,1.34-1.15l-.85.5a4.56,4.56,0,0,0,1.67-1.17l.42-.36c.13-.11.08-.07-.14.1l.58-.45c.16-.13.31-.28.47-.42s.16-.13-.07,0l.26-.18c.13-.08.27-.17.41-.24s.72-.37.21-.12l.63-.27c-.24.1-.26.12-.06,0l.42-.13.29-.06c-.26,0-.27,0-.06,0s.41,0,.62-.09c-.23,0-.24,0,0,0a4.75,4.75,0,0,0,1.19-.1,3.66,3.66,0,0,0,.55-.21c-.24.1.22-.12.24-.12a.14.14,0,0,0,.18-.17Z"/><path class="cls-14" d="M989.85,1208.66a2,2,0,0,0-.31-.76,4.5,4.5,0,0,0-.75-.62,3.84,3.84,0,0,0-2.09-.61,6.92,6.92,0,0,0-4.06,1,8.76,8.76,0,0,0-3,3.1,3.7,3.7,0,0,0-.25.43l-.15.36c-.05.41-.07.52,0,.32-.09.31-.23.61-.33.92a2.69,2.69,0,0,0-.11,2,.63.63,0,0,0,.7.29c.92-.26,1.42-1.39,2.08-2l-.6.35a3.41,3.41,0,0,0,1.36-1.11c.3-.33.62-.63.93-.95s.35-.36.53-.52l.26-.22c-.13.11,0,0,.07-.05a8.85,8.85,0,0,1,1.07-.63,7.74,7.74,0,0,1,2.21-.62c.41,0,.81-.09,1.23-.12a4.12,4.12,0,0,0,.7,0,2.55,2.55,0,0,0,.29-.13c.25-.11-.25,0,.09,0a.31.31,0,0,0,.21-.38Z"/><path class="cls-14" d="M982.33,1205.34a.15.15,0,0,0,0-.29.15.15,0,0,0,0,.29Z"/><path class="cls-14" d="M963.05,1223.81a42,42,0,0,1-10.69-15.21,50.16,50.16,0,0,1-2.77-8.63,39.42,39.42,0,0,1-.7-4.59c-.13-1.47,0-2.91-.8-4.2a.51.51,0,0,0-.88,0c-.85,1.35-.59,2.88-.44,4.4a42.42,42.42,0,0,0,.74,4.76,38.45,38.45,0,0,0,3,9,43.13,43.13,0,0,0,12,14.9c.33.27.81-.18.48-.47Z"/><path class="cls-14" d="M977.66,1233a92.16,92.16,0,0,1-9.92-16.94,81.19,81.19,0,0,1-5.34-19.16c-.12-.72-1.36-.56-1.28.17a65.31,65.31,0,0,0,5.42,19.21,59.06,59.06,0,0,0,10.94,16.86c.09.09.25,0,.18-.14Z"/><polygon class="cls-12" points="946.73 1173.63 947.08 1260.13 911.96 1258.68 898.51 1169.84 946.73 1173.63"/><path class="cls-8" d="M908.31,1267c-3.89-9.57-3.32-19.09-2.12-29.34a4.45,4.45,0,0,1,.56-2,1.29,1.29,0,0,1,1.27-.49c29.69,4.61,23.54-9.4,39.44-12a3.65,3.65,0,0,1,3.43,1.38c4.89,6.22,10,12.4,16.72,16.55,12.75,7.89,29.28,7.36,42.27,14.83,4.22,2.42,8.35,6.55,7.72,11.37Z"/><path class="cls-9" d="M906.36,1266.13H1020.9a0,0,0,0,1,0,0v5.66a2.83,2.83,0,0,1-2.83,2.83H909.19a2.83,2.83,0,0,1-2.83-2.83v-5.66A0,0,0,0,1,906.36,1266.13Z" transform="translate(1927.26 2540.74) rotate(-180)"/><path class="cls-14" d="M983.42,1248.18a.12.12,0,1,0,0-.24.12.12,0,0,0,0,.24Z"/><path class="cls-14" d="M984.49,1247.59a1.4,1.4,0,0,0-.76-.62,3.29,3.29,0,0,0-.76-.09,3.46,3.46,0,0,0-1.66.41,5.75,5.75,0,0,0-2.26,1.92,4.74,4.74,0,0,0-.95,2.94,5.69,5.69,0,0,0,.3,1.53,1.7,1.7,0,0,0,1.31,1.21.77.77,0,0,0,.82-.33,2,2,0,0,0,.36-1.22,5.76,5.76,0,0,1,0-.59l0-.25c0-.18-.06.29,0,0l.06-.28c.14-.78,0-.37,0-.3s.08-.42.1-.49,0-.19.09-.29a.78.78,0,0,1,0-.14c0-.1,0-.06,0,.11a1.47,1.47,0,0,1,.25-.48l.13-.2c.17-.27-.2.21,0,0s.23-.26.36-.38l.18-.16c.24-.21-.24.15,0,0a4.21,4.21,0,0,1,.45-.28l.21-.11c.28-.15-.27.1,0,0a4.22,4.22,0,0,0,.68-.32l.2-.1c.1,0,.11,0,0,0l.21-.09a1.47,1.47,0,0,0,.51-.57.78.78,0,0,0,0-.78Z"/><path class="cls-14" d="M975.51,1244.37l-.22-.21L975,1244c-.27-.2.26.2.22.26l0-.07a1.64,1.64,0,0,0-.54-.54,2.16,2.16,0,0,0-1-.23,4.7,4.7,0,0,0-.75,0l-.4,0a2.49,2.49,0,0,0-.79.25l-.37.19a6.47,6.47,0,0,0-2.79,3,2.08,2.08,0,0,0-.28,1l.08.54a2,2,0,0,0,1.19,1.34,2.06,2.06,0,0,0,2.78-1.34c0-.15.1-.3.16-.45l-.21.49a5.34,5.34,0,0,1,.59-1l-.3.4a4.78,4.78,0,0,1,.87-.87l-.38.29a6.33,6.33,0,0,1,.54-.36,8.4,8.4,0,0,0,.8-.65l-.34.27c.17-.13.34-.24.52-.36a1.71,1.71,0,0,0,.75-.92l0-.14-.3.51.2-.2.09-.08c.11-.09-.11.08,0,0a.61.61,0,0,0,.12-1Z"/><path class="cls-14" d="M967.07,1240.47a3.35,3.35,0,0,1-.14-.38,1.94,1.94,0,0,0-.88-.8,3.56,3.56,0,0,0-2.28,0,6,6,0,0,0-3.46,2.76,7.7,7.7,0,0,0-1.15,4.21,3.16,3.16,0,0,0,.11.81c.24.53.28.64.11.31l0,.17a4.93,4.93,0,0,0,.24,1,3.93,3.93,0,0,0,.68,1.15,2.52,2.52,0,0,0,.58.72.6.6,0,0,0,.72-.09,1.64,1.64,0,0,0,.38-.56c.14-.32.39-.55.53-.88.22-.52.32-1.12.5-1.66l-.49.84a3.21,3.21,0,0,0,.67-1.16c.06-.22.09-.46.15-.68.1-.4.25-.78.36-1.17a3.84,3.84,0,0,1,.32-1c-.12.28-.13.31,0,.1l.14-.27a5.58,5.58,0,0,1,.32-.52,2.08,2.08,0,0,1,.34-.48c-.17.21-.19.24-.05.07l.2-.21a7.31,7.31,0,0,1,.72-.64c-.3.25.16-.09.23-.14a2.85,2.85,0,0,0,.57-.47,5.63,5.63,0,0,0,.36-.46l.07-.12c.06-.19.08-.24.08-.15a.14.14,0,0,0,.06-.23Z"/><path class="cls-14" d="M960.55,1235.05c-.21-.16-.3-.33-.56-.42a4.2,4.2,0,0,0-.71-.11,3,3,0,0,0-1.52.18,6.61,6.61,0,0,0-2.8,2,8.89,8.89,0,0,0-1.56,3.12c-.35,1.24-.59,3.17.29,4.23l-.35-.6c.19,1,.36,2.18,1.2,2.79a.62.62,0,0,0,.75-.1c.59-.74.5-1.79.65-2.69l-.35.6a2,2,0,0,0,.52-1.14,5.24,5.24,0,0,1,.09-.61c.08-.48.19-1,.29-1.44q.09-.41.21-.81l.12-.35c0-.09.1-.25,0-.07a6.63,6.63,0,0,1,.65-1.13,7.81,7.81,0,0,1,.6-.79,5.26,5.26,0,0,1,.8-.74c.33-.23.61-.5.93-.75a3.54,3.54,0,0,0,.54-.39,2,2,0,0,0,.18-.26c.16-.22-.19.16.07-.06a.32.32,0,0,0-.06-.49Z"/><path class="cls-14" d="M952.4,1236.39a.14.14,0,0,0,0-.28.14.14,0,1,0,0,.28Z"/><path class="cls-14" d="M946.3,1262.35a42.1,42.1,0,0,1-17.07-6.88,47.8,47.8,0,0,1-7.19-5.88,41.54,41.54,0,0,1-2.93-3.28c-1-1.19-1.64-2.59-3.06-3.26a.52.52,0,0,0-.77.44c0,1.58,1,2.69,2,3.88a40.12,40.12,0,0,0,3.29,3.72,38.52,38.52,0,0,0,7.53,6,43.24,43.24,0,0,0,18.14,5.93c.38,0,.47-.6.09-.66Z"/><path class="cls-14" d="M963.5,1262.1a92.22,92.22,0,0,1-17.64-8.94,81,81,0,0,1-14.71-13.08c-.57-.63-1.43.28-.92.91a64.86,64.86,0,0,0,15,13.2,58.89,58.89,0,0,0,18.18,8.13c.14,0,.19-.16.06-.22Z"/><path class="cls-15" d="M813.39,497.82s1-13.24-1.13-22.87c-1.57-7.12-3.8-15.17-4.38-17.84-1.46-6.72,1-27.36,1-27.36-.15-.62-.08-3.51-5.83-1.33s-5.47,15.77-6.51,21.65l-27.94-17.33-9.22,29.32,23.73,37.37Z"/><path class="cls-15" d="M1154.1,483.14h-.57l2.31-7.72,7.39-29.49a5.42,5.42,0,0,0-3.47-6.43l-5.32-.18-18.21-8.52a5.68,5.68,0,0,0-7.68,4.41c-.66,5.42-4.35,20-8.27,14.88l-.29-.33c-5.51-7.6-12.38-11.69-15.21-11.58s-3.77,3.45-1.93,5.45a3.45,3.45,0,0,0,1.05.9c.18.1.4.28.59.4a47.22,47.22,0,0,1,6.56,7.2,24.9,24.9,0,0,1,4,7.67c1,3.06,1.7,5.74,2.24,8-.75,6,1.78,10.67,4.39,15.33"/><path class="cls-8" d="M1105.5,349.55s21.29-4.08,51.87-31.86,45.65-65.4,49.29-65.11,19.76-6.65,48.15,60,16,81.63,10,81.33-46.58-12.84-72.2-10.67-58.83,14.56-58.83,14.56Z"/><path class="cls-9" d="M1059.54,384.16l6.83,13.92,3.06,6.24a17.91,17.91,0,0,0,23.12,8.59l45.79-14.51-24.7-61-46,22.85A17.94,17.94,0,0,0,1059.54,384.16Z"/><path class="cls-9" d="M1085.06,406.87l13.65,28.73,7.29-1.8,46.09,39.72L1166,448.08s-27.54-12.81-32.42-22.9,1.15-12.17,1.15-12.17L1122,397.72Z"/><path class="cls-9" d="M1252.33,313.74c15.09,36.12,20.9,68.09,13,71.4s-26.6-23.27-41.7-59.39-20.89-68.08-13-71.39S1237.24,277.63,1252.33,313.74Z"/><polygon class="cls-8" points="1055.09 403.87 1067.49 400.36 1060.29 385.69 1050.91 391.15 1055.09 403.87"/><polygon class="cls-8" points="1126.39 402.96 1092.77 423.08 1088.88 414.89 1126.39 402.96"/><polygon class="cls-8" points="1060.29 385.69 1067.49 400.36 1064.94 401.08 1059.17 386.34 1060.29 385.69"/><path class="cls-14" d="M1068.67,389.26c.17.4,6.37-1.81,13.85-4.93s13.41-6,13.24-6.4-6.37,1.81-13.85,4.94S1068.5,388.86,1068.67,389.26Z"/><path class="cls-14" d="M1065.13,380.54c.19.4,5.8-1.78,12.55-4.87s12.07-5.91,11.89-6.31-5.8,1.79-12.55,4.87S1065,380.15,1065.13,380.54Z"/><path class="cls-14" d="M1073.18,398.43c.06.21,1.53-.08,3.88-.74,1.17-.32,2.56-.74,4.1-1.22s3.13-1.26,4.84-2c6.81-2.93,12-5.84,11.87-6.2s-5.74,1.85-12.49,4.75c-1.69.71-3.27,1.5-4.75,2.07s-2.81,1.07-3.92,1.52C1074.48,397.55,1073.12,398.22,1073.18,398.43Z"/><path class="cls-14" d="M1219.72,304.88s18.71-10.88,28.07,14.25-10.11,28.66-10.11,28.66A165.52,165.52,0,0,1,1219.72,304.88Z"/><path class="cls-9" d="M1201,274.72a27.07,27.07,0,0,0,.58,4.77c.5,3.05,1.2,7.48,2.22,12.92l2.29,8.77,1.29,4.88c.23.84.45,1.69.68,2.55s.59,1.7.88,2.57q1.85,5.19,3.85,10.84c.34.94.68,1.88,1,2.84s.81,1.86,1.21,2.81l2.57,5.71q1.32,2.89,2.59,5.72c.44.92.8,1.88,1.3,2.77l1.46,2.64,5.58,10.06c.46.8.87,1.6,1.34,2.36l1.47,2.2q1.44,2.17,2.81,4.21l5.06,7.52c3.4,4.36,6.25,7.81,8.21,10.2a28.2,28.2,0,0,0,3.19,3.6,28.23,28.23,0,0,0-2.71-4l-7.8-10.5c-1.5-2.32-3.12-4.86-4.87-7.58q-1.31-2-2.72-4.21l-1.42-2.2c-.46-.75-.86-1.56-1.31-2.36q-2.61-4.8-5.46-10l-1.43-2.63c-.5-.88-.85-1.84-1.29-2.76q-1.26-2.81-2.56-5.68l-2.56-5.66c-.4-.94-.88-1.84-1.21-2.79s-.69-1.89-1-2.82c-1.36-3.72-2.67-7.31-3.91-10.73-.31-.86-.65-1.69-.91-2.54s-.47-1.7-.71-2.53c-.46-1.66-.92-3.27-1.36-4.83-.88-3.11-1.7-6-2.46-8.67-1.13-5.33-2.05-9.68-2.7-12.77A29.11,29.11,0,0,0,1201,274.72Z"/><path class="cls-15" d="M1142.24,425.29a4.1,4.1,0,0,1,2.28,5.22c-1.46,4-3.83,10.19-5.6,14a10.44,10.44,0,0,1-2.17,3.36,3.37,3.37,0,0,1-5.92-2.38,10.82,10.82,0,0,1,.79-4.15c1.25-3.71,3.41-9.25,5.25-13.76a4.11,4.11,0,0,1,5.37-2.25Z"/><path class="cls-15" d="M1148,432.61a4.1,4.1,0,0,1,2.29,5.21c-1.47,4-3.83,10.19-5.6,14a10.64,10.64,0,0,1-2.18,3.36,3.36,3.36,0,0,1-5.91-2.38,10.62,10.62,0,0,1,.79-4.14c1.25-3.71,3.4-9.26,5.24-13.77a4.1,4.1,0,0,1,5.37-2.24Z"/><path class="cls-15" d="M1153.47,437.25a3.55,3.55,0,0,1,2,4.51c-1.27,3.44-3.32,8.82-4.85,12.09a9.28,9.28,0,0,1-1.88,2.91,2.92,2.92,0,0,1-5.13-2.06,9.47,9.47,0,0,1,.69-3.59c1.08-3.21,3-8,4.54-11.92a3.55,3.55,0,0,1,4.65-1.94Z"/><path class="cls-15" d="M1160.5,438.81a3.56,3.56,0,0,1,2,4.53c-1.27,3.45-3.33,8.87-4.87,12.15a9.18,9.18,0,0,1-1.89,2.92,2.93,2.93,0,0,1-5.15-2.07,9.42,9.42,0,0,1,.69-3.61c1.09-3.22,3-8.05,4.56-12a3.57,3.57,0,0,1,4.68-1.95Z"/><path class="cls-16" d="M1137.13,448c-.23-.1,1-3.42,2.74-7.41s3.35-7.15,3.58-7.05-1,3.42-2.74,7.42S1137.37,448.09,1137.13,448Z"/><path class="cls-16" d="M1143.45,454.06c-.23-.1,1.11-3.89,3-8.47s3.62-8.21,3.85-8.11-1.11,3.89-3,8.47S1143.69,454.15,1143.45,454.06Z"/><path class="cls-16" d="M1150.06,454.86c-.23-.12,1.23-3.34,2.9-7.35s2.93-7.32,3.18-7.24-.64,3.53-2.33,7.59S1150.28,455,1150.06,454.86Z"/><path class="cls-9" d="M876.94,704s-27.72,29.18-27.72,86.56c0,63.23,24.8,146.15,27.48,178.49s-2.92,46.44-6.08,58.85-3.46,41.33,6.78,95.8,20.94,100.68,20.94,100.68h55.93s-2.92-139.58-6.32-177.52,31.67-170.22,33.83-244.14-6.11-90.94-6.11-90.94Z"/><path class="cls-9" d="M1037.43,725.65s20.92,87.79,31.61,136.42,14.6,76.36,17,96.79,11.18,32.58-17,86.56-78.3,152.71-78.3,152.71l-50.57-24.8s25.29-77.81,35-115.26,30.15-61.28,30.15-61.28S978.1,936,965,887.36s-14.59-86.08-14.59-86.08l11.67-75.63Z"/><path class="cls-8" d="M1158.61,479.75s-1.54,99-3.95,121.52c-2.29,21.41-18.75,36.45-25.24,38.88s-23.25-5.35-39.45-17.29c-2.16-1.59-4.58-3.51-7.15-5.66h0c-16.48-13.72-39-36.27-39-36.27a50.72,50.72,0,0,1,.51,10.56c-.48,10.51-4,26.6-19.47,37.28,0,0-.66,13.28,1.15,40.71,3.87,20.67,9.59,47,12.56,60.38,1.16,5.25-3.88,11.93-12.56,15.9-11.16,5.12-26.88,9.21-52.52,11-26.11,1.85-70.23,1.28-92.89-11.18-9.72-5.35-19.36-15.76-13.26-29.23,0,0,21.21-40,25-61.5a82.57,82.57,0,0,0-2.17-17.78c-4.5-21.18-14.43-46.12-14.83-47.12v0s-12.44,33.6-20.73,48.79S838,671.68,819.55,672.29s-31.38-27.95-33.2-49.43S778,497.15,778,497.15l41.55-9.37,11.58,57.37S849.7,503.81,876,488.57c16.07-9.33,42.19-17.38,95.28-16.67,0,0,18.42-3.12,48.35,7.91s89.59,88,89.59,88l7.25-88.07Z"/><path class="cls-17" d="M975.5,464.16c21.65,7.38,28.68-4.15,28.68-4.15,3.38-4.73,8-8.38,11.85-12.75s6.9-10,6.07-15.75c-.86-5.95-5.68-10.67-6.88-16.56-2.24-11,8.62-21.27,7-32.36-.9-6.25-5.57-11.18-9.77-15.91s-8.36-10.36-7.89-16.67c0,0-4.06-7.42-19.32-4.14s-31.43,18.79-31.43,18.79l-45.75,60,67.43,39.52"/><path class="cls-17" d="M915.82,456.59c13.44,1.66,7.89-10.85,13.44-12.76s.93-49.53,3.87-54.62,5.69-10.59,10.5-14c8-5.6,18.77-3.68,28.32-1.72s20.59,3.35,28-2.93c6.42-5.42,7.82-15,5.77-23.19a35.21,35.21,0,0,0-59.22-16.15c-3.55,3.6-4.93,5.27-9.13,8.09-4.75,3.2-14,.65-25.63,8.37-17.32,11.45-25.56,26.33-25.39,32.05-2.27,4.62,10.33,18.19,7,31.16-4.48,17.47-4.3,32.33,11.45,41.66l11,4"/><path class="cls-15" d="M976.52,482c.36-15.87.7-23.68.7-23.68S983,453.85,991,430.53c6.25-18.1,5.33-35.79,0-48.63-4.87-11.76,3.56-25.89-3.18-27.87l-30.59-5.55-33.81,25-.79,105.07c-.1,14.87,9.59,26.48,24.46,26.48h0C961.65,505,976.19,496.55,976.52,482Z"/><path class="cls-16" d="M977.22,458.32s-19.06,2-36.23-6.91c0,0,8.9,21.19,35.81,19.52Z"/><path class="cls-16" d="M951.16,403.52c-.13.21-.66.13-1.17-.19s-.83-.75-.7-1,.66-.14,1.18.18S951.29,403.3,951.16,403.52Z"/><path class="cls-16" d="M957.45,404c-.25,0-.39-.51-.31-1.07s.34-1,.59-.93.4.51.32,1.06S957.7,404,957.45,404Z"/><path class="cls-16" d="M954,414.43c-.23-.1-.26-.54-.06-1s.54-.7.77-.59.26.54.06,1S954.25,414.54,954,414.43Z"/><path class="cls-16" d="M994.46,403c-.14.21-.54.19-.9,0s-.53-.6-.39-.81.54-.19.9,0S994.6,402.75,994.46,403Z"/><path class="cls-16" d="M998.45,402.37c-.22-.12-.18-.61.1-1.09s.68-.76.9-.63.17.61-.1,1.09S998.67,402.5,998.45,402.37Z"/><path class="cls-16" d="M995.76,412.86c-.25,0-.36-.66-.24-1.37s.42-1.26.68-1.21.35.65.23,1.36S996,412.9,995.76,412.86Z"/><path class="cls-18" d="M994.46,451.5c0-.07.75.28,2.13.67a15.58,15.58,0,0,0,6,.52,16.26,16.26,0,0,0,8.11-3.31,15.79,15.79,0,0,0,5.74-8.92,18.26,18.26,0,0,0-.7-10.66,14,14,0,0,0-5.4-6.83,13.41,13.41,0,0,0-5.58-2.07c-1.41-.18-2.22-.09-2.22-.17s.19-.08.57-.13a9.18,9.18,0,0,1,1.68-.05,12.69,12.69,0,0,1,5.9,1.87,14.32,14.32,0,0,1,5.83,7.07,18.76,18.76,0,0,1,.82,11.19,16.31,16.31,0,0,1-6.13,9.37,16.5,16.5,0,0,1-8.56,3.29,14.61,14.61,0,0,1-6.13-.83A6.22,6.22,0,0,1,994.46,451.5Z"/><path class="cls-15" d="M989.88,351.18c-21.71,20.9-63.56,42.07-68,45.38-2.58,1.93-3.41,6.53-3.67,10a.68.68,0,0,1-1.31.19c-1.56-4.27,2,16.57,2,16.57s15.23,37.11,50.28,38.13,42.78-28.68,40.12-46.91-2.39-27.29-.86-38S1002.58,356.53,989.88,351.18Z"/><path d="M998.76,402.49a3.12,3.12,0,0,1-3,3.16,3,3,0,0,1-3.23-2.81,3.13,3.13,0,0,1,3-3.17A3,3,0,0,1,998.76,402.49Z"/><path class="cls-17" d="M1004,397.33c-.38.41-2.76-1.34-6.13-1.33s-5.83,1.71-6.19,1.3c-.18-.18.21-.92,1.28-1.71a8.66,8.66,0,0,1,5-1.54,8.3,8.3,0,0,1,4.88,1.56C1003.84,396.41,1004.19,397.14,1004,397.33Z"/><path d="M967.48,403.08a3.14,3.14,0,0,1-3,3.17,3,3,0,0,1-3.23-2.82,3.12,3.12,0,0,1,3-3.16A3,3,0,0,1,967.48,403.08Z"/><path class="cls-17" d="M970.12,399c-.38.41-2.76-1.34-6.13-1.33s-5.83,1.71-6.2,1.3c-.18-.18.21-.92,1.29-1.71a8.66,8.66,0,0,1,5-1.54,8.3,8.3,0,0,1,4.88,1.56C970,398.08,970.31,398.81,970.12,399Z"/><path d="M982.4,425.62c0-.2,2.08-.56,5.47-1,.86-.09,1.67-.27,1.82-.85a4.38,4.38,0,0,0-.58-2.55q-1.23-3.12-2.56-6.54c-3.55-9.32-6.13-17-5.75-17.12s3.56,7.3,7.11,16.61q1.29,3.45,2.45,6.58a5,5,0,0,1,.46,3.38,2.17,2.17,0,0,1-1.41,1.26,6,6,0,0,1-1.46.21C984.53,425.79,982.41,425.81,982.4,425.62Z"/><path class="cls-17" d="M971.6,390.8c-.33.92-3.69.49-7.64,1s-7.15,1.57-7.67.75c-.24-.39.31-1.26,1.6-2.15a13.41,13.41,0,0,1,11.67-1.31C971,389.65,971.74,390.37,971.6,390.8Z"/><path class="cls-17" d="M1003.5,389.86c-.67.77-3.3,0-6.46-.05s-5.84.53-6.46-.27c-.27-.39.15-1.16,1.31-1.88a10.4,10.4,0,0,1,10.42.26C1003.43,388.7,1003.8,389.49,1003.5,389.86Z"/><path class="cls-16" d="M981.12,433.8a15.77,15.77,0,0,1-2.09,4.11,5.45,5.45,0,0,1-3.88,2.26,4.91,4.91,0,0,1-4.15-2.26,7.83,7.83,0,0,1-1.15-4.71c.06-1.49.74-3.26,2.22-3.44a3.75,3.75,0,0,1,1.79.4l7.77,3.15"/><path d="M978,440.19c0-.24-1.74.45-4.13-.51a5.93,5.93,0,0,1-3.13-2.84,6.26,6.26,0,0,1-.11-5.08,5.28,5.28,0,0,1,.68-1.16c.31-.33.25-.31.59-.26s.82.32,1.24.49l1.27.52c1.67.67,3.17,1.26,4.44,1.73,2.54.95,4.15,1.45,4.23,1.27s-1.4-1-3.84-2.17c-1.23-.59-2.69-1.27-4.32-2l-1.26-.56a12.14,12.14,0,0,0-1.42-.58,1.75,1.75,0,0,0-1.15,0,2.11,2.11,0,0,0-.86.68,6.78,6.78,0,0,0-.87,1.47,7.29,7.29,0,0,0,.24,6.21,6.64,6.64,0,0,0,3.94,3.18,6.21,6.21,0,0,0,3.36.13C977.69,440.53,978.05,440.27,978,440.19Z"/><path class="cls-19" d="M923.45,456a3.66,3.66,0,0,1-1.16.32,20.23,20.23,0,0,1-3.43.34,26.71,26.71,0,0,1-12.33-2.77,28.58,28.58,0,0,1-13.14-13.29,32.85,32.85,0,0,1-2.22-22.72c.93-4,2.11-7.73,2.29-11.42a18.13,18.13,0,0,0-2.58-10.13c-1.64-3-3.34-6.07-4-9.24a21.79,21.79,0,0,1-.25-8.84A23.23,23.23,0,0,1,892,366.87a16.26,16.26,0,0,1,2.5-2.37c.63-.47,1-.7,1-.66s-1.24,1.11-3,3.41a23.93,23.93,0,0,0-4.77,11.21,21.08,21.08,0,0,0,.42,8.37c.7,2.95,2.34,5.78,4,8.87a27,27,0,0,1,2.2,5.07,18.44,18.44,0,0,1,.64,5.8c-.18,4-1.39,7.81-2.31,11.71a31.84,31.84,0,0,0,2,21.74,27.86,27.86,0,0,0,24.19,16.08C921.8,456.19,923.43,455.9,923.45,456Z"/><path class="cls-17" d="M915.19,439.69c-1.14-24.43-1.46-31.21-2.6-55.64-.23-5-.36-10.4,2.41-14.58,2.63-4,42.69-34.64,47.13-36.29C981.28,326,976.7,351,997,348.58c2.47,4.18,2.84,12-3,14.83-4.38,2.11-15.89,1.26-20.46,2.92s-11.36,2.82-13.28,7.29c-2,4.76-4.76,14.76-8.49,18.88-6,6.59-11,8.41-14,16.77-2.32,6.32,1.29,13.12,2.13,19.8a24.58,24.58,0,0,1-7.52,20.73c-5.59,5.19-8.12,7.93-15.6,6.42Z"/><path class="cls-9" d="M1114.91,489.32c-.68,3.74-.89,7.57-1.24,11.35L1112.62,512c-.71,7.71-1.39,15.41-2.15,23.11s-1.46,15.4-2.14,23.1-1.51,15.12-1.77,22.72a117.74,117.74,0,0,0,.3,12.46,55.08,55.08,0,0,0,2,12.36c0,.15.3.13.28,0-.33-3.8-.77-7.59-1-11.41s-.13-7.37,0-11c.33-7.42.87-14.81,1.4-22.21.55-7.71,1.31-15.4,1.88-23.1.55-7.55,1.17-15.09,1.77-22.64q.51-6.36,1-12.73c.35-4.38.91-8.8.86-13.2,0-.13-.21-.17-.24,0Z"/><path class="cls-9" d="M1100.2,604.44a32.71,32.71,0,0,0,1.49-4.75c.51-1.74,1.07-3.48,1.74-5.18a44.8,44.8,0,0,1,2.31-4.91c.43-.78.87-1.54,1.34-2.29s1-1.22.83-2a.51.51,0,0,0-.61-.34c-.78.15-1.11,1-1.5,1.62-.5.79-1,1.6-1.42,2.43a43.89,43.89,0,0,0-2.29,5,35.38,35.38,0,0,0-1.61,5.22,14.22,14.22,0,0,0-.43,5.23c0,.06.12.07.15,0Z"/><path class="cls-9" d="M890.11,638.36c1,7.58,2,15.08,2.34,22.72a194,194,0,0,1-.39,23.13c-.35,4.33-1.16,8.62-1,13a.29.29,0,0,0,.57.08c1.31-3.62,1.62-7.4,2-11.21s.59-7.78.68-11.67a147.82,147.82,0,0,0-1.37-23,104.84,104.84,0,0,0-2.42-13c-.05-.2-.4-.16-.37.05Z"/><path class="cls-9" d="M856,635.66a126.54,126.54,0,0,0,8.42-16.07c2.47-5.27,4.72-10.66,6.89-16.06q6.69-16.66,11.86-33.9c1-3.26,1.91-6.52,2.81-9.81.42-1.57.84-3.14,1.25-4.71a14.58,14.58,0,0,0,.8-4.92.3.3,0,0,0-.56-.15,12.23,12.23,0,0,0-1.4,3.83c-.38,1.5-.78,3-1.18,4.5q-1.15,4.29-2.4,8.54Q879.94,575.54,877,584c-3.87,11.28-8.32,22.32-13.11,33.24-2.68,6.1-5.72,12.1-8.08,18.33,0,.09.1.13.14.06Z"/><path class="cls-9" d="M830.73,541.08c.44,14.7,1.34,29.38,2.25,44.06.86,13.7,2.27,27.56,1.15,41.28a86.36,86.36,0,0,1-1.63,11.2c-.79,3.61-2.13,7.16-2.64,10.82a.36.36,0,0,0,.65.27c1.9-2.69,2.81-6.16,3.52-9.33a83.14,83.14,0,0,0,1.55-9.54,139.32,139.32,0,0,0,.45-20.33c-.27-7-.83-14-1.33-21.06-.52-7.42-1-14.84-1.56-22.26-.63-8.38-1.4-16.75-2.26-25.11,0-.1-.16-.1-.15,0Z"/><path class="cls-9" d="M778.45,495.75a60,60,0,0,0,.13,7.09q.15,3.75.35,7.51.38,7.83.82,15.66c.64,11,1.19,22.09,1.76,33.14,1,19.39,2.6,38.72,4.2,58.06.28,3.45.58,6.89.94,10.33a37,37,0,0,0,.46,3.81c.19.86.54,1.7.7,2.57.08.39.68.23.61-.17a11.93,11.93,0,0,1-.11-2.22,32,32,0,0,0-.33-3.24c-.33-2.9-.6-5.81-.86-8.73-.73-8.3-1.54-16.67-1.78-25-.3-10.57-1.27-21.14-1.93-31.69-.69-11.07-1.57-22.13-2.24-33.21q-.54-8.88-1.14-17.77c-.2-2.82-.39-5.65-.61-8.47a62,62,0,0,0-.77-7.7c0-.12-.19-.08-.2,0Z"/><path class="cls-9" d="M914.31,480.1c-2.95,8.9-1.17,19,4,26.74a35,35,0,0,0,21.16,14.7c9.29,2.19,19.23.83,27.94-2.92,7.73-3.32,14.66-9.32,18.17-17.07a28.45,28.45,0,0,0,2.54-14.31c-.45-4.76-1.77-9.94-4.74-13.79-.69-.9-2.21-.12-1.58.92,2.15,3.59,3.89,7.31,4.27,11.54a29.77,29.77,0,0,1-1.4,12.11A33.51,33.51,0,0,1,969.88,516c-8,4.68-17.34,5.53-26.4,4.22a33.58,33.58,0,0,1-21.63-11.91c-6.3-7.8-8.2-18.18-6.68-27.94a.45.45,0,0,0-.86-.23Z"/><path class="cls-14" d="M1050.62,585.76c-.08-.9-.41-1.74-.49-2.65a6.54,6.54,0,0,1,.48-3.33,6,6,0,0,1,1.85-2.36,9.08,9.08,0,0,1,3.4-1.19c2.39-.6,4-2,4.17-4.55.07-1.19-.26-2.53.18-3.68a2.75,2.75,0,0,1,2.11-1.55c3.79-1,8.83.13,10.18-4.74.64-2.3-.13-5.08,1.21-7.17,1.54-2.4,4.09.18,5.83.94a4.45,4.45,0,0,0,5.83-2c1.18-1.92,1.9-6.76,5-6a.93.93,0,0,0,.72-1.69c-2.37-1.59-4.93.94-5.94,3-.9,1.8-1.68,6-4.55,4.95-2.24-.79-4-3-6.62-2-2.29.84-3.07,3.54-3.22,5.74-.18,2.68,0,5.5-3.14,6.27-2.1.51-4.34.21-6.41.9a4.76,4.76,0,0,0-3.37,4.58c-.06,1.24.39,2.93-.4,4s-2.62,1.2-3.84,1.56a7,7,0,0,0-4.9,5.25c-.43,1.85-.35,5.1,1.8,5.87a.06.06,0,0,0,.08-.06Z"/><path class="cls-14" d="M877.93,597.05a4.94,4.94,0,0,0,5.49,1.89c2.83-.67,4.65-3.19,6.54-5.19s4.41-3.92,7.28-2.65c2.07.92,3.66,2.66,5.42,4s3.51,2.34,5.63,2.14a6.57,6.57,0,0,0,4.5-2.58,29,29,0,0,0,3-5c.81-1.54,1.68-3.32,3.18-4.3,3.62-2.38,7.13,2.72,9.62,4.63a6.32,6.32,0,0,0,5.33,1.51c2-.47,3.38-2.09,4.56-3.63,1-1.33,2.21-3.56,4-3.89,2.11-.38,3.63,2.14,4.94,3.38,1.56,1.49,3.68,2.39,5.68,1.11,2.62-1.69,2.46-5,2-7.71-.69-3.71-1.45-7.4-2.17-11.1-.58-3-1.77-6.43-1.19-9.49.6-3.23,3.92-3.58,6.15-1.62s2.53,5.72,2.92,8.58A138.08,138.08,0,0,0,965.19,588q1.51,5.19,3.45,10.24c1,2.54,2.16,5.34,4.64,6.75,2,1.14,4.84,1.23,6.58-.43,2.24-2.15,1.32-5.47.63-8.08-1-3.61-1.93-7.2-2.91-10.8-.63-2.33-2.15-6.67,1.5-7.16,2.88-.39,5,1.84,6.47,4,1.69,2.38,3.22,4.91,5.82,6.41a6.46,6.46,0,0,0,7.45-.21c1.92-1.57,2.52-4.11,2.59-6.48.07-2.52-.63-5-.65-7.47,0-2,.24-4.77,2.38-5.57,2.94-1.11,5.39,2.38,6.59,4.52,1.4,2.48,2.66,5.27,5.16,6.85,2,1.27,4.88,1.74,7,.49,2.34-1.35,2.47-3.93,3-6.29.2-1,.53-2.07,1.72-2,1.44.09,2.53,1.48,3.33,2.51,1.53,2,3.29,4.35,6.11,4.14,2.39-.18,4.49-2,3.94-4.55l-1.77,1.77,3.22.79c1.79.45,2.55-2.31.76-2.75l-3.22-.81a1.45,1.45,0,0,0-1.76,1.76c.16.74-1.31,1-1.81.91-1.29-.25-2.25-1.76-3-2.72-1.55-2.06-3.66-4.26-6.49-3.93s-3.68,2.79-4.08,5.17a6.25,6.25,0,0,1-.89,3,2.87,2.87,0,0,1-2.9.68c-2.7-.62-4-3.22-5.24-5.46-1.42-2.6-3-5.2-5.82-6.5a6.08,6.08,0,0,0-7,1c-1.63,1.65-2.13,4.08-2.19,6.32-.07,2.51.62,4.95.66,7.45,0,2-.24,4.76-2.4,5.61-2.87,1.13-5.62-1.86-7.07-3.92-1.62-2.27-3.17-5-5.76-6.28a7.21,7.21,0,0,0-6.46-.22c-2.52,1.36-2.82,4.26-2.29,6.8.72,3.46,1.84,6.89,2.79,10.29.46,1.66,1,3.31,1.38,5,.33,1.32.69,3.12-.42,4.18a3.3,3.3,0,0,1-3.28.42,6.15,6.15,0,0,1-3.14-3.15,55.31,55.31,0,0,1-3.48-9.22,137.79,137.79,0,0,1-5-20.53c-.84-5.13-.63-12.74-6.55-14.88a5.25,5.25,0,0,0-6.37,2c-1.3,2.09-1.05,4.81-.65,7.13.6,3.55,1.38,7.07,2.07,10.61.34,1.69.67,3.39,1,5.08s.9,3.8,0,5.42c-1.57,2.67-3.81.32-5.16-1.12s-3-3-5.25-2.74c-4.07.42-4.94,5.52-8.16,7.25-1.87,1-3.66-.06-5.1-1.3a43.18,43.18,0,0,0-4.6-4,6.25,6.25,0,0,0-5.33-.91,7.54,7.54,0,0,0-3.8,3.25c-1,1.55-1.78,3.27-2.68,4.9s-1.86,3.21-3.54,3.87c-2,.77-3.85-.31-5.38-1.48a41.94,41.94,0,0,0-5.13-3.89,6.78,6.78,0,0,0-6.59-.11c-2.58,1.39-4,4-6,6-1.8,1.87-5.48,3.72-7.45,1-.31-.45-1-.05-.75.44Z"/><path class="cls-19" d="M986.42,806.84c-2.13,7.34-3.63,14.89-5.26,22.35s-3.23,15-4.79,22.45c-3.11,14.84-6,29.73-8.73,44.63q-8.37,44.94-15.16,90.15-1.89,12.51-3.66,25.05-.89,6.27-1.74,12.54c-.59,4.26-1.27,8.52-1.59,12.81-.07,1,1.51,1.18,1.69.23,1.43-7.5,2.16-15.17,3.22-22.73s2.15-15.17,3.28-22.74q3.35-22.5,7.05-44.93c5-29.92,10.51-59.72,16.25-89.5q2.4-12.43,4.91-24.85c1.7-8.42,3.68-16.84,5-25.34,0-.27-.35-.4-.43-.12Z"/><path class="cls-19" d="M945.94,1036.39c.09,24.42,1.32,48.88,1.84,73.3s1.2,48.85,1.83,73.27q.27,10.23.52,20.46c.08,3.49.17,7,.25,10.47a76.9,76.9,0,0,0,.53,10.18c.13.85,1.3.53,1.38-.19a66.83,66.83,0,0,0,0-9.28q-.11-4.63-.23-9.28l-.45-18.08q-.46-18.32-1-36.63-1-36.52-2.14-73c-.43-13.72-.49-27.59-1.1-41.3,0-.2-.79,0-.78.15Z"/><path class="cls-19" d="M907.69,765.8c-.35,2.78-.34,5.59-.63,8.37a72.19,72.19,0,0,1-1.37,8.28A63,63,0,0,1,899.81,798a62,62,0,0,1-20.44,22.57c-4.79,3.17-10.14,5.26-15,8.21-.23.14-.15.57.15.54a22.49,22.49,0,0,0,7.45-1.9,54.7,54.7,0,0,0,7.08-3.79,64.61,64.61,0,0,0,12.18-9.81,61.16,61.16,0,0,0,15.67-29.17,59.36,59.36,0,0,0,1.38-9.48,30.5,30.5,0,0,0-.52-9.39Z"/><path class="cls-19" d="M982.09,939.16a14.51,14.51,0,0,0,1.11,4.56l1.74,4.8q1.71,4.71,3.44,9.43,3.35,9,7.1,17.79c2.54,6,5.24,12,8.16,17.82a82.89,82.89,0,0,0,8.89,14.63,44.31,44.31,0,0,0,6.22,6.62,37.86,37.86,0,0,0,7.86,4.86.24.24,0,0,0,.24-.42,49.43,49.43,0,0,1-6.44-5.3,65,65,0,0,1-5.67-5.83,73.7,73.7,0,0,1-8.88-14c-5.84-11.45-10.83-23.32-15.51-35.28-1.33-3.41-2.67-6.8-4-10.21l-2-5.2a14.51,14.51,0,0,0-2.19-4.27,0,0,0,0,0-.08,0Z"/><path class="cls-19" d="M873.63,746.47c-1.77,3.87-3.13,7.92-4.59,11.92-.75,2.06-1.48,4.13-2.21,6.2-.36,1-.81,2.06-1.09,3.11s-.32,2.17-.58,3.24c0,.14.17.25.24.1.45-1,1.09-1.86,1.53-2.84s.66-1.89,1-2.82c.72-2.07,1.44-4.14,2.13-6.23,1.38-4.15,2.88-8.28,3.93-12.53,0-.2-.25-.35-.35-.15Z"/><path class="cls-19" d="M864.77,779.65l-.84,11.92c-.14,2-.29,4-.41,6,0,.91-.11,1.83-.16,2.75a11.74,11.74,0,0,0,.24,2.78c0,.13.2.11.23,0a11,11,0,0,0,.58-2.78l.18-2.75c.12-2,.22-4,.32-6l.62-11.92c0-.49-.72-.49-.76,0Z"/><path class="cls-19" d="M864.26,818.42c.56,4.32,1.25,8.63,2,12.93l1.08,6.54c.18,1.09.37,2.18.56,3.27.1.54.15,1.1.29,1.63s.53,1.13.68,1.77c.06.22.45.18.42-.06-.07-.63.09-1.23,0-1.86,0-.37-.13-.73-.19-1.09-.2-1.08-.39-2.17-.6-3.25l-1.29-6.73c-.85-4.41-1.7-8.82-2.7-13.19,0-.14-.28-.11-.26,0Z"/><path class="cls-19" d="M872.1,863.31c1.45,4.69,2.94,9.37,3.92,14.19.5,2.46.87,4.94,1.14,7.44q.2,1.74.3,3.51a18.4,18.4,0,0,0,.64,3.59.26.26,0,0,0,.49,0,12,12,0,0,0,.36-3.37c-.09-1.32-.21-2.64-.36-3.95a70.56,70.56,0,0,0-1.27-7.35,52.78,52.78,0,0,0-5.12-14.11s-.12,0-.1,0Z"/><path class="cls-19" d="M885.34,913.17a74.35,74.35,0,0,1,4.07,14.53,62.11,62.11,0,0,1,.74,7.59c.05,1.29,0,2.59.07,3.89s.25,2.58.29,3.88c0,.24.39.32.44.06.21-1.16.47-2.34.61-3.51a23.51,23.51,0,0,0,0-4.11,58.15,58.15,0,0,0-1-7.66,52.49,52.49,0,0,0-5-14.73c0-.09-.2,0-.17.06Z"/><path class="cls-19" d="M894.76,969.3l.39,10.41c.12,3.31-.12,6.86.74,10.06a.18.18,0,0,0,.35,0c.61-3.25.11-6.75,0-10.06l-.41-10.41c0-.67-1.07-.68-1,0Z"/><path class="cls-19" d="M891,1012.8c-2.23,7.75-4.82,15.48-6.4,23.38a.11.11,0,1,0,.21.06c2.89-7.53,4.84-15.45,7.1-23.19a.47.47,0,0,0-.91-.25Z"/><path class="cls-19" d="M883.68,1048.09c0,3.41,0,6.82-.15,10.23-.06,1.68-.1,3.35-.06,5,0,1.51-.17,3.19.57,4.57a.26.26,0,0,0,.44,0c.64-1.37.39-2.92.35-4.38-.06-1.75-.19-3.48-.34-5.22-.29-3.4-.48-6.82-.69-10.23a.06.06,0,0,0-.12,0Z"/><path class="cls-19" d="M885,1086.72a35.86,35.86,0,0,0,.57,6.53q.44,3.39.88,6.77c.28,2.07.58,4.14.87,6.21.15,1.09.29,2.18.46,3.27s.64,2.25.9,3.39a.13.13,0,0,0,.25,0c-.07-1.09.06-2.19,0-3.27s-.29-2-.43-2.94c-.33-2.26-.65-4.51-1-6.76l-1-6.52a37.52,37.52,0,0,0-1.33-6.67c0-.06-.1,0-.11,0Z"/><path class="cls-19" d="M892.05,1129a41.69,41.69,0,0,0,.63,7l.87,6.56.88,6.57c.13,1,.27,2,.41,3a10.55,10.55,0,0,0,.28,1.87c.16.45.46.86.65,1.31,0,.06.16.05.17,0,.06-.47.25-.95.28-1.43a9.32,9.32,0,0,0-.21-1.64c-.13-1.07-.28-2.14-.43-3.2l-.91-6.57-.92-6.56a43,43,0,0,0-1.28-7,.22.22,0,0,0-.42.06Z"/><path class="cls-19" d="M897.73,1170.57c.38,4.59.79,9.17,1.32,13.75l.81,6.75a25,25,0,0,0,1.19,6.56c0,.1.22.14.24,0a24.59,24.59,0,0,0-.44-6.56c-.31-2.33-.6-4.66-.91-7-.61-4.53-1.33-9-2.08-13.53,0-.07-.14,0-.13,0Z"/><path class="cls-19" d="M901,1206.35c.3,1.87.75,3.71,1.18,5.55a48.84,48.84,0,0,0,1.39,5.48c.06.17.36.16.33,0a46.9,46.9,0,0,0-1.26-5.46c-.46-1.86-.9-3.74-1.51-5.56a.07.07,0,0,0-.13,0Z"/><path class="cls-13" d="M1024.79,629.36a29.61,29.61,0,0,1-12.81,5.39c-7.33,1.06-14.66-3.18-16.71-4.45s-4-3.65-5.09-3.49-1.06,3.69.44,6.52a20.05,20.05,0,0,0,15.81,10.42c9.32.73,15-2.19,18.36-4.3Z"/><path class="cls-13" d="M975.35,640.3c-3.17,6.49-15.24,16.78-36.64,14.68s-42.1-13.64-48.53-17.89c-4.5-21.18-14.43-46.12-14.83-47.12v0L887.45,550s17.46,25.84,19.88,52.58c0,0,2.68,14.83,8.19,22.95s16.88,15.07,27.53,16.61,30-2.62,34.58-16C977.63,626.19,978.51,633.82,975.35,640.3Z"/><path class="cls-9" d="M977.61,626.18a36.3,36.3,0,0,1-5.38,6.89,27.57,27.57,0,0,1-7.11,4.66,38.53,38.53,0,0,1-17.92,3.51,39.53,39.53,0,0,1-30.29-16.42,43.54,43.54,0,0,1-4.58-8.12,48.07,48.07,0,0,1-3.24-9.22c-.07-.34-.64-.27-.61.08a34.08,34.08,0,0,0,1.43,8.8,38,38,0,0,0,4,8.17,40.32,40.32,0,0,0,50.25,15.39,30.08,30.08,0,0,0,8.45-5.5c2.34-2.19,4.56-5,5.07-8.23,0,0,0,0,0,0Z"/><path class="cls-13" d="M1082.82,617.2c-16.48-13.72-39-36.27-39-36.27a50.72,50.72,0,0,1,.51,10.56l-6.3-36.26,44.8,62Z"/><path class="cls-9" d="M1028.72,521.17q3.55,15.35,7.4,30.62c1.29,5.12,2.59,10.24,3.79,15.38a151.55,151.55,0,0,1,3,15.21,52.22,52.22,0,0,1-3.8,27.88c-3.46,7.86-9,15.17-16.39,19.64a27.26,27.26,0,0,1-13.39,4,24.08,24.08,0,0,1-7.16-.92c-1.06-.31-2.07-.8-3.13-1.1a14.47,14.47,0,0,1-3.57-1.59c-.24-.14-.52.2-.3.39a17.34,17.34,0,0,0,5.17,3.39,24.15,24.15,0,0,0,6,1.34,27.28,27.28,0,0,0,12.88-1.9c8.07-3.29,14.41-9.84,18.76-17.27a51.69,51.69,0,0,0,7-27.44c-.33-10.8-3.81-21.17-6.48-31.55l-4.6-17.88c-1.57-6.12-3.3-12.19-5-18.28a.13.13,0,0,0-.24.07Z"/><path class="cls-13" d="M918.77,726.63s31.09-6.88,55.4-26.55,35.64-32.21,37.78-39.67-8.56-10.15-18.29,0S976.88,697,918.77,726.63Z"/><path class="cls-9" d="M925.15,724.86c14.14-2.62,27.76-9,39.93-16.54a153.62,153.62,0,0,0,33.4-27.91c2.7-3,5.25-6.12,7.68-9.34,1.22-1.62,2.43-3.26,3.57-4.94a13.86,13.86,0,0,0,2.66-5.38c0-.23-.2-.51-.44-.34a13.68,13.68,0,0,0-3.24,3.62c-1.05,1.45-2.05,2.93-3.11,4.37-2.13,2.92-4.38,5.74-6.71,8.5a145.44,145.44,0,0,1-15,15.31,151.15,151.15,0,0,1-36.07,23.55c-7.4,3.44-15.05,6.2-22.73,9-.09,0-.05.16,0,.15Z"/><path class="cls-9" d="M835.84,621.09A76.1,76.1,0,0,1,838,632.38a52.93,52.93,0,0,1,.22,5.49c0,.94-.06,1.89-.12,2.84a3.86,3.86,0,0,0,.13,2.08.11.11,0,0,0,.16,0,3.28,3.28,0,0,0,.49-1.9c.07-1,.11-2,.12-3a51.49,51.49,0,0,0-.27-5.69A39.59,39.59,0,0,0,836.05,621a.11.11,0,0,0-.21.06Z"/><path class="cls-19" d="M996.41,352.56a24.34,24.34,0,0,0-4.35-8.76,27.07,27.07,0,0,0-29-9.12c-7.49,2.16-13.28,7.56-19.49,12a39,39,0,0,1-10.5,5.63,21.27,21.27,0,0,1-12,.13c-3.93-1-7.85-2.33-12-1.61-3.1.55-6.1,2.19-7,5.36a.46.46,0,0,0,.83.35,9,9,0,0,1,7.14-4.5c3.64-.45,7.18.82,10.66,1.7a22.79,22.79,0,0,0,10.48.46,31.14,31.14,0,0,0,9.66-4.11c6.15-3.76,11.35-8.95,17.82-12.22a26.43,26.43,0,0,1,31.15,5.21,31,31,0,0,1,6.3,9.56c.06.16.31.1.26-.07Z"/><path class="cls-19" d="M978.16,363.16c-5.24,3.23-10.4-2.44-15.18-3.88s-9.93.36-14.15,2.78c-4.61,2.64-8.62,6.27-13.52,8.42a16.52,16.52,0,0,1-8.25,1.46,25.48,25.48,0,0,1-8.41-2.69c-3-1.45-5.92-3.11-8.87-4.65s-6-3.57-9.32-4.48c-.27-.07-.53.31-.29.5,2.44,2,5.51,3.27,8.3,4.73s5.43,2.85,8.19,4.18c4.92,2.37,10.24,4.19,15.72,2.82,5.15-1.29,9.41-4.69,13.71-7.62,4.75-3.25,10.78-6.52,16.71-4.79,4.76,1.4,10.33,7,15.43,3.33a.07.07,0,1,0-.07-.11Z"/><path class="cls-19" d="M900,367.41c9.61,9.85,2.87,24.54,3.07,36.35a22.93,22.93,0,0,0,1.69,8.74,24.84,24.84,0,0,0,5,6.94c2,2.19,4.33,4.45,5.27,7.38,1.1,3.47-.38,7,.11,10.55a8.21,8.21,0,0,0,5.14,6.52c2.72,1,6.63.59,8.29-2,.12-.19-.11-.38-.29-.29-3,1.51-6.09,2.6-9.13.46s-3.29-5.63-3-9.09c.27-2.95.32-5.67-1.13-8.33a30.74,30.74,0,0,0-4.92-6.05,21.85,21.85,0,0,1-5-7.48,25.62,25.62,0,0,1-1.23-9.36c.18-6.19,1.77-12.24,1.88-18.43.1-5.74-1-12.14-5.58-16-.11-.09-.26.06-.16.16Z"/><path class="cls-14" d="M832.62,572.24a7.2,7.2,0,0,1,9.89,5c.72,3.46.1,8.91,4.37,10.33,3.53,1.18,6-2.36,9-3.4,4-1.37,5.06,4,6.61,6.43a8.9,8.9,0,0,0,4.9,3.72c1.27.4,4.84,1.12,5.33-.71a.42.42,0,0,0-.11-.4c-.66-.61-1.38-.3-2.2-.27a7.25,7.25,0,0,1-3-.53,8.09,8.09,0,0,1-4.11-4.25c-1.39-2.78-3-6.44-6.75-5.94a10.83,10.83,0,0,0-4.43,2.15c-1.35.92-3,2.2-4.78,1.76-2.34-.58-3.15-3.48-3.45-5.54s-.41-4.43-1.71-6.28a7.35,7.35,0,0,0-9.53-2.19s0,.09,0,.07Z"/><path class="cls-14" d="M780.45,507.9c1.33.78,2.79.6,4.27.46,1.73-.16,3.46-.33,5.18-.54,3.33-.41,6.64-1.06,9.92-1.73s6.67-1.45,10-2.3q2.54-.65,5.05-1.37c1.48-.42,3.29-.67,4.5-1.65.74-.6.06-1.64-.71-1.71-1.54-.13-3.39.8-4.87,1.22s-3.06.84-4.6,1.24q-4.95,1.28-10,2.3c-3.27.66-6.56,1.17-9.84,1.78-1.63.3-3.26.58-4.9.85-1.46.23-2.89.38-4,1.41a0,0,0,0,0,0,0Z"/><path class="cls-14" d="M1117.53,492.4c.82.42,1.49,1,2.34,1.38a20,20,0,0,0,2,.74,50.55,50.55,0,0,0,5,1.25,93,93,0,0,0,10.25,1.48,84,84,0,0,0,10.28.24c1.72-.05,3.43-.16,5.14-.31,1.26-.12,3.22.06,3.92-1.22a.51.51,0,0,0-.07-.61c-1-1.06-2.82-.46-4.08-.36-1.64.13-3.27.21-4.91.25a99.21,99.21,0,0,1-10-.29,89.08,89.08,0,0,1-9.9-1.3c-1.69-.32-3.37-.66-5.05-1-.69-.14-1.38-.24-2.07-.33-.91-.12-1.78,0-2.69-.11-.1,0-.13.14,0,.19Z"/><path class="cls-14" d="M870.48,714.16c-1,10.65,7.85,20.12,16.5,24.93,10.94,6.09,23.94,7.17,36.21,7.7,6.59.28,13.17.29,19.76.45a143.63,143.63,0,0,0,20.19-1.42,282.29,282.29,0,0,0,39.12-7.23,159.61,159.61,0,0,0,20.29-6.37c5.06-2.08,11.48-5,13.13-10.69a.27.27,0,0,0-.44-.26c-1,.77-2,1.46-3,2.28a37.4,37.4,0,0,1-3.2,2.67,37,37,0,0,1-6.77,3.62,155.8,155.8,0,0,1-17,5.67,243.4,243.4,0,0,1-37.49,7.75c-6.4.8-12.8,1-19.22,1.47s-12.84.8-19.3.66c-12-.26-24.69-1-35.92-5.67a39.35,39.35,0,0,1-14.69-10.43,37.35,37.35,0,0,1-7.61-15.21c-.09-.36-.57-.25-.6.08Z"/><path class="cls-9" d="M712.19,1274.61l-385.63-1.78a84,84,0,0,1-83.62-84.36L247,232.16a84,84,0,0,1,84.39-83.65l385.63,1.78a84,84,0,0,1,83.62,84.36L796.58,1191A84,84,0,0,1,712.19,1274.61Z"/><path class="cls-20" d="M775.06,242.74l-4,943.65A58.81,58.81,0,0,1,712,1245l-384.86-1.77a58.84,58.84,0,0,1-58.56-59.08l4-943.66a58.82,58.82,0,0,1,59.1-58.58l61.52.28a17.59,17.59,0,0,1,17.52,17.59v1.19a17.58,17.58,0,0,0,17.59,17.59H615.34a17.59,17.59,0,0,0,17.59-17.59h0a17.59,17.59,0,0,1,17.68-17.59l65.89.31A58.82,58.82,0,0,1,775.06,242.74Z"/><path class="cls-21" d="M775.06,242.74l-4,943.65A58.81,58.81,0,0,1,712,1245l-384.86-1.77a58.84,58.84,0,0,1-58.56-59.08l4-943.66a58.82,58.82,0,0,1,59.1-58.58l61.52.28a17.59,17.59,0,0,1,17.52,17.59v1.19a17.58,17.58,0,0,0,17.59,17.59H615.34a17.59,17.59,0,0,0,17.59-17.59h0a17.59,17.59,0,0,1,17.68-17.59l65.89.31A58.82,58.82,0,0,1,775.06,242.74Z"/><path class="cls-5" d="M997.74,197.07h0a28.49,28.49,0,0,1-13.38-38l14.46-30.17a28.48,28.48,0,0,1,38-13.37h0a28.47,28.47,0,0,1,13.37,38l-14.46,30.17A28.47,28.47,0,0,1,997.74,197.07Z"/><path class="cls-5" d="M990.25,212.71a42.08,42.08,0,0,1-19.75-56.08l3.67,1.76A38,38,0,0,0,992,209c20.17,9.64,41,2.31,50.65-17.83l3.67,1.76C1035.63,215.26,1012.58,223.38,990.25,212.71Z"/><rect class="cls-5" x="976.4" y="218.09" width="20.58" height="4.07" transform="translate(361.8 1014.81) rotate(-64.4)"/><rect class="cls-5" x="980.59" y="203.75" width="4.07" height="49.71" transform="translate(351.85 1015.96) rotate(-64.4)"/><path class="cls-5" d="M990.9,114.2c-1.34-.64-3-2.36-5.62-5.28-4.35-5-5.62-7-4-8.65l.63-.64,1.07,0c2.33.06,6.23,4.38,7,5.24s4.54,5.28,4.3,7.6l-.09.88-.79.7h0A2.16,2.16,0,0,1,990.9,114.2Z"/><path class="cls-5" d="M1014.78,102c-1.17-.56-2.32-2.71-3.61-9.49-1.53-8.05-.62-9.38-.32-9.82l.48-.7,1.78-.4.83.51c.44.3,1.79,1.21,3.31,9.25,1.79,9.4.57,10.44-1.09,10.76h0A2.15,2.15,0,0,1,1014.78,102Z"/><path class="cls-5" d="M1040.72,105.89l-.41-.94c-.18-.49-.75-2,2.68-9s5-7.43,5.48-7.58l.85-.26.92.46c1.08.62,2.56,1.48-1.7,10.12s-5.84,8-7,7.51Z"/><path class="cls-5" d="M1060.86,121.68l-.47-1c-.9-2.27,1.56-3.67,6.75-6.37s7.75-3.9,9.1-1.86l.51.75-.21,1.09c-.6,2.38-5.94,5.2-6.55,5.51s-6,3.06-8.27,2.18Z"/><path class="cls-5" d="M1067.47,150.54a2,2,0,0,1-1.27-1.88c-.15-2.2,2.45-2.77,3.71-3a40.9,40.9,0,0,1,5.47-.72c8.67-.61,9.5.86,9.62,2.42.15,2.2-2.45,2.77-3.71,3a40.9,40.9,0,0,1-5.47.72C1071.08,151.41,1068.68,151.13,1067.47,150.54Z"/><path class="cls-22" d="M326.49,426.34s11.18-27.53,26.59-27.78c15.92-.25,15.21,28.44,31.09,27.78,33.17-1.39,12.12-62.25,45.4-62.5,33.66-.25,16.11,61,49.64,62.5,15.48.68,16.63-26.63,32.17-26.55,15.34.08,15.33,26.66,30.68,26.55,9.55-.07,8.78-16.92,18.33-16.75,9.22.16,6.19,17.11,15.38,16.75,28-1.11,2.65-53.95,30.72-53.92s3.26,50.07,30.22,53.92c14.3,2,27.57-21.14,42.43-20.83,13.75.28,35.9,20.83,35.9,20.83Z"/><path class="cls-23" d="M326.49,426.34s11.18-27.53,26.59-27.78c15.92-.25,15.21,28.44,31.09,27.78,33.17-1.39,12.12-62.25,45.4-62.5,33.66-.25,16.11,61,49.64,62.5,15.48.68,16.63-26.63,32.17-26.55,15.34.08,15.33,26.66,30.68,26.55,9.55-.07,8.78-16.92,18.33-16.75,9.22.16,6.19,17.11,15.38,16.75,28-1.11,2.65-53.95,30.72-53.92s3.26,50.07,30.22,53.92c14.3,2,27.57-21.14,42.43-20.83,13.75.28,35.9,20.83,35.9,20.83Z"/><path class="cls-24" d="M354.49,426.37s9.57-20.4,22.75-20.58c13.63-.19,13,21.07,26.61,20.58,28.39-1,10.37-46.12,38.86-46.3,28.81-.19,13.79,45.21,42.49,46.3,13.25.51,14.23-19.73,27.53-19.67,13.14.06,13.12,19.75,26.26,19.67,8.18-.05,7.52-12.53,15.69-12.41,7.89.12,5.3,12.68,13.17,12.41,23.94-.82,2.26-40,26.29-39.95s2.79,37.1,25.86,39.95c12.24,1.52,23.6-15.66,36.32-15.43,11.77.21,30.73,15.43,30.73,15.43Z"/><path class="cls-25" d="M326.49,426.36s11.18,27.53,26.59,27.78c15.92.25,15.21-28.44,31.09-27.78,33.17,1.39,12.12,62.25,45.4,62.5,33.66.25,16.11-61,49.64-62.5,15.48-.68,16.63,26.63,32.17,26.55,15.34-.08,15.33-26.66,30.68-26.55,9.55.07,8.78,16.92,18.33,16.75,9.22-.16,6.19-17.12,15.38-16.75,28,1.11,2.65,53.95,30.72,53.92s3.26-50.07,30.22-53.92c14.3-2,27.57,21.14,42.43,20.83,13.75-.28,35.9-20.83,35.9-20.83Z"/><g class="cls-26"><circle class="cls-27" cx="522.16" cy="641.19" r="43.97"/><circle class="cls-28" cx="522.16" cy="641.19" r="43.22"/><circle class="cls-29" cx="522.16" cy="641.19" r="42.48"/><circle class="cls-30" cx="522.16" cy="641.19" r="41.73"/><circle class="cls-31" cx="522.16" cy="641.19" r="40.98"/><circle class="cls-32" cx="522.16" cy="641.19" r="40.24"/><circle class="cls-33" cx="522.16" cy="641.19" r="39.49"/><circle class="cls-34" cx="522.16" cy="641.19" r="38.75"/><circle class="cls-35" cx="522.16" cy="641.19" r="38"/><circle class="cls-36" cx="522.16" cy="641.19" r="37.25"/><circle class="cls-37" cx="522.16" cy="641.19" r="36.51"/><circle class="cls-38" cx="522.16" cy="641.19" r="35.76"/><circle class="cls-39" cx="522.16" cy="641.19" r="35.02"/><circle class="cls-40" cx="522.16" cy="641.19" r="34.27"/><circle class="cls-41" cx="522.16" cy="641.19" r="33.52"/><circle class="cls-42" cx="522.16" cy="641.19" r="32.78"/><circle class="cls-43" cx="522.16" cy="641.19" r="32.03"/><circle class="cls-44" cx="522.16" cy="641.19" r="31.29"/><circle class="cls-45" cx="522.16" cy="641.19" r="30.54"/><circle class="cls-46" cx="522.16" cy="641.19" r="29.79"/><circle class="cls-47" cx="522.16" cy="641.19" r="29.05"/><circle cx="522.16" cy="641.19" r="28.3"/></g><circle class="cls-48" cx="522.16" cy="641.19" r="32.34"/><path class="cls-49" d="M616.06,638.37a3.26,3.26,0,0,1,0,5.63l-6.2,3.58-6.2,3.58a3.25,3.25,0,0,1-4.88-2.82V634a3.26,3.26,0,0,1,4.88-2.82l6.2,3.58Z"/><path class="cls-50" d="M643.12,638.37a3.25,3.25,0,0,1,0,5.63l-6.2,3.58-6.2,3.58a3.25,3.25,0,0,1-4.87-2.82V634a3.25,3.25,0,0,1,4.87-2.82l6.2,3.58Z"/><path class="cls-51" d="M428.26,638.37a3.26,3.26,0,0,0,0,5.63l6.2,3.58,6.2,3.58a3.25,3.25,0,0,0,4.88-2.82V634a3.26,3.26,0,0,0-4.88-2.82l-6.2,3.58Z"/><path class="cls-52" d="M401.2,638.37a3.25,3.25,0,0,0,0,5.63l6.2,3.58,6.2,3.58a3.25,3.25,0,0,0,4.87-2.82V634a3.25,3.25,0,0,0-4.87-2.82l-6.2,3.58Z"/><rect class="cls-14" x="511.47" y="627.84" width="6.18" height="26.7" rx="2.95"/><rect class="cls-14" x="526.67" y="627.84" width="6.18" height="26.7" rx="2.95"/><line class="cls-53" x1="312.03" y1="570.38" x2="732.29" y2="570.38"/><line class="cls-54" x1="312.03" y1="570.38" x2="448.38" y2="570.38"/><circle class="cls-55" cx="448.38" cy="570.38" r="3.55"/><path class="cls-10" d="M310.74,585.07c0-3.32,1-6,4.19-6s4.21,2.64,4.21,6-1.05,6-4.21,6S310.74,588.4,310.74,585.07Zm6.23,0c0-2.24-.46-4-2-4s-2,1.78-2,4,.45,4.08,2,4.08S317,587.36,317,585.07Z"/><path class="cls-10" d="M321.07,588.81h2.07v2.07h-2.07Z"/><path class="cls-10" d="M325.08,585.07c0-3.32,1-6,4.19-6s4.2,2.64,4.2,6-1,6-4.2,6S325.08,588.4,325.08,585.07Zm6.23,0c0-2.24-.46-4-2-4s-2,1.78-2,4,.46,4.08,2,4.08S331.31,587.36,331.31,585.07Z"/><path class="cls-10" d="M337.14,584.54a2.74,2.74,0,0,1-1.19-2.27c0-1.6,1.17-3.16,3.71-3.16,2.16,0,3.75,1.21,3.75,3.21a4.89,4.89,0,0,1-1.28,2.85,2.8,2.8,0,0,1,1.48,2.46c0,1.78-1.48,3.44-4.08,3.44s-4.14-1.56-4.14-3.55A3.9,3.9,0,0,1,337.14,584.54Zm1.48.86a2.67,2.67,0,0,0-1.07,2,1.9,1.9,0,0,0,2,1.85,1.75,1.75,0,0,0,1.94-1.67C341.47,586.53,340,586.07,338.62,585.4Zm2-1a3.14,3.14,0,0,0,.78-2c0-.89-.69-1.47-1.73-1.47s-1.61.59-1.61,1.34C338,583.38,339.26,583.84,340.58,584.41Z"/><path class="cls-10" d="M695.6,585.32h4.9v1.81h-4.9Z"/><path class="cls-10" d="M702.86,585.07c0-3.32,1-6,4.19-6s4.21,2.64,4.21,6-1,6-4.21,6S702.86,588.4,702.86,585.07Zm6.23,0c0-2.24-.46-4-2-4s-2,1.78-2,4,.46,4.08,2,4.08S709.09,587.36,709.09,585.07Z"/><path class="cls-10" d="M713.19,588.81h2.07v2.07h-2.07Z"/><path class="cls-10" d="M717.36,589.07h2.51v-6.42c0-.39,0-.79,0-.79h0a2.63,2.63,0,0,1-.51.66l-.93.88-1.24-1.31,2.9-2.78h1.85v9.76h2.51v1.81h-7.08Z"/><path class="cls-10" d="M725.8,589.85c0-4.17,5.41-4.84,5.41-7.14a1.61,1.61,0,0,0-1.76-1.61,2.64,2.64,0,0,0-2.08,1.37l-1.57-1.05a4.29,4.29,0,0,1,3.83-2.31c2,0,3.77,1.24,3.77,3.42,0,3.72-5.19,4.35-5.23,6.54h5.41v1.81H725.9A7.94,7.94,0,0,1,725.8,589.85Z"/><path class="cls-56" d="M387.46,794.65H324c-6.6,0-9.61,6.71-4.56,10.17l19.11,12.95a14.52,14.52,0,0,1,6.36,12v213.71a18.21,18.21,0,0,0,18.21,18.21H687.84a18.21,18.21,0,0,0,18.21-18.21V812.87a18.21,18.21,0,0,0-18.21-18.22Z"/><rect class="cls-2" x="421.16" y="826.8" width="113.05" height="9.21" rx="4.61"/><rect class="cls-2" x="379.23" y="850.99" width="178.09" height="9.21" rx="4.61"/><rect class="cls-2" x="379.23" y="875.18" width="76.96" height="9.21" rx="4.61"/><rect class="cls-2" x="464.24" y="875.18" width="106.91" height="9.21" rx="4.61"/><rect class="cls-2" x="579.84" y="875.18" width="85.18" height="9.21" rx="4.61"/><rect class="cls-2" x="379.23" y="899.37" width="113.05" height="9.21" rx="4.61"/><rect class="cls-2" x="421.16" y="923.57" width="82.38" height="9.21" rx="4.61"/><rect class="cls-2" x="513.47" y="923.57" width="82.38" height="9.21" rx="4.61"/><rect class="cls-2" x="605.78" y="923.57" width="59.24" height="9.21" rx="4.61"/><rect class="cls-2" x="379.23" y="947.76" width="91.43" height="9.21" rx="4.61"/><rect class="cls-2" x="480.1" y="947.76" width="33.42" height="9.21" rx="4.61"/><rect class="cls-2" x="522.96" y="947.76" width="33.42" height="9.21" rx="4.61"/><rect class="cls-2" x="565.69" y="947.76" width="99.33" height="9.21" rx="4.61"/><rect class="cls-2" x="379.23" y="971.95" width="163.04" height="9.21" rx="4.61"/><rect class="cls-2" x="552.87" y="971.95" width="112.15" height="9.21" rx="4.61"/><rect class="cls-2" x="379.23" y="996.15" width="52.62" height="9.21" rx="4.61"/><rect class="cls-2" x="441.96" y="996.15" width="52.62" height="9.21" rx="4.61"/><rect class="cls-2" x="504.69" y="996.15" width="117.74" height="9.21" rx="4.61"/><rect class="cls-2" x="632.21" y="996.15" width="32.81" height="9.21" rx="4.61"/><rect class="cls-2" x="379.23" y="1020.34" width="113.05" height="9.21" rx="4.61"/><rect class="cls-2" x="544.37" y="826.8" width="32.51" height="9.21" rx="4.61"/><rect class="cls-2" x="565.69" y="850.99" width="12.56" height="9.21" rx="4.61"/><rect class="cls-2" x="586.63" y="850.99" width="55.04" height="9.21" rx="4.61"/><rect class="cls-2" x="648.25" y="850.99" width="16.77" height="9.21" rx="4.61"/><rect class="cls-2" x="586.63" y="826.8" width="78.39" height="9.21" rx="4.61"/></g></g></g></svg>