<svg xmlns="http://www.w3.org/2000/svg" viewBox="0 0 163.9 163.9"><defs><style>.cls-1{fill:#364def;}.cls-2{fill:#343436;}.cls-3{fill:#fff;}</style></defs><g id="Layer_2" data-name="Layer 2"><g id="Layer_1-2" data-name="Layer 1"><path class="cls-1" d="M163.9,37.16v89.61a37.25,37.25,0,0,1-37.14,37.13H37.16A37.25,37.25,0,0,1,0,126.77V37.16A37.27,37.27,0,0,1,37.16,0h89.6A37.27,37.27,0,0,1,163.9,37.16Z"/><polygon class="cls-2" points="134.37 51.78 134.37 136.13 117.05 125.04 68.84 125.04 68.84 51.78 134.37 51.78"/><path class="cls-3" d="M101.42,77.3l-8.68-27h0A28,28,0,0,0,65.32,27.78H29.52v97.28l16.6-12.85H78.86A14.43,14.43,0,0,0,93.28,97.78a1.26,1.26,0,0,0-1.08-1.26c-7.52-1-10.39-5.92-11.35-8.28A.94.94,0,0,1,81.73,87h8.13a3.43,3.43,0,0,0,3.42-3.43V82.17h4.59A3.72,3.72,0,0,0,101.42,77.3Z"/><path class="cls-3" d="M105.68,84.59l-4.4,4.55a11.28,11.28,0,0,1-.23,10.2l4.63,4.14A17.36,17.36,0,0,0,105.68,84.59Z"/><path class="cls-3" d="M114.29,77.84l-1.08-1L109,81.18l1.08,1a17,17,0,0,1,.41,24l-.81.83,4.55,4.06.64-.66A23.09,23.09,0,0,0,114.29,77.84Z"/></g></g></svg>