<?xml version="1.0" encoding="utf-8"?>
<svg xmlns="http://www.w3.org/2000/svg" xmlns:xlink="http://www.w3.org/1999/xlink" style="margin: auto; background: none; display: block; shape-rendering: auto;" width="170px" height="170px" viewBox="0 0 100 100" preserveAspectRatio="xMidYMid">
<g transform="rotate(0 50 50)">
  <rect x="47" y="24" rx="0" ry="0" width="6" height="12" fill="#364def">
    <animate attributeName="opacity" values="1;0" keyTimes="0;1" dur="1.36986301369863s" begin="-1.2557077625570776s" repeatCount="indefinite"></animate>
  </rect>
</g><g transform="rotate(30 50 50)">
  <rect x="47" y="24" rx="0" ry="0" width="6" height="12" fill="#364def">
    <animate attributeName="opacity" values="1;0" keyTimes="0;1" dur="1.36986301369863s" begin="-1.1415525114155252s" repeatCount="indefinite"></animate>
  </rect>
</g><g transform="rotate(60 50 50)">
  <rect x="47" y="24" rx="0" ry="0" width="6" height="12" fill="#364def">
    <animate attributeName="opacity" values="1;0" keyTimes="0;1" dur="1.36986301369863s" begin="-1.0273972602739727s" repeatCount="indefinite"></animate>
  </rect>
</g><g transform="rotate(90 50 50)">
  <rect x="47" y="24" rx="0" ry="0" width="6" height="12" fill="#364def">
    <animate attributeName="opacity" values="1;0" keyTimes="0;1" dur="1.36986301369863s" begin="-0.9132420091324202s" repeatCount="indefinite"></animate>
  </rect>
</g><g transform="rotate(120 50 50)">
  <rect x="47" y="24" rx="0" ry="0" width="6" height="12" fill="#364def">
    <animate attributeName="opacity" values="1;0" keyTimes="0;1" dur="1.36986301369863s" begin="-0.7990867579908676s" repeatCount="indefinite"></animate>
  </rect>
</g><g transform="rotate(150 50 50)">
  <rect x="47" y="24" rx="0" ry="0" width="6" height="12" fill="#364def">
    <animate attributeName="opacity" values="1;0" keyTimes="0;1" dur="1.36986301369863s" begin="-0.684931506849315s" repeatCount="indefinite"></animate>
  </rect>
</g><g transform="rotate(180 50 50)">
  <rect x="47" y="24" rx="0" ry="0" width="6" height="12" fill="#364def">
    <animate attributeName="opacity" values="1;0" keyTimes="0;1" dur="1.36986301369863s" begin="-0.5707762557077626s" repeatCount="indefinite"></animate>
  </rect>
</g><g transform="rotate(210 50 50)">
  <rect x="47" y="24" rx="0" ry="0" width="6" height="12" fill="#364def">
    <animate attributeName="opacity" values="1;0" keyTimes="0;1" dur="1.36986301369863s" begin="-0.4566210045662101s" repeatCount="indefinite"></animate>
  </rect>
</g><g transform="rotate(240 50 50)">
  <rect x="47" y="24" rx="0" ry="0" width="6" height="12" fill="#364def">
    <animate attributeName="opacity" values="1;0" keyTimes="0;1" dur="1.36986301369863s" begin="-0.3424657534246575s" repeatCount="indefinite"></animate>
  </rect>
</g><g transform="rotate(270 50 50)">
  <rect x="47" y="24" rx="0" ry="0" width="6" height="12" fill="#364def">
    <animate attributeName="opacity" values="1;0" keyTimes="0;1" dur="1.36986301369863s" begin="-0.22831050228310504s" repeatCount="indefinite"></animate>
  </rect>
</g><g transform="rotate(300 50 50)">
  <rect x="47" y="24" rx="0" ry="0" width="6" height="12" fill="#364def">
    <animate attributeName="opacity" values="1;0" keyTimes="0;1" dur="1.36986301369863s" begin="-0.11415525114155252s" repeatCount="indefinite"></animate>
  </rect>
</g><g transform="rotate(330 50 50)">
  <rect x="47" y="24" rx="0" ry="0" width="6" height="12" fill="#364def">
    <animate attributeName="opacity" values="1;0" keyTimes="0;1" dur="1.36986301369863s" begin="0s" repeatCount="indefinite"></animate>
  </rect>
</g>
<!-- [ldio] generated by https://loading.io/ --></svg>