<?xml version="1.0" encoding="utf-8"?>
<!-- Generator: Adobe Illustrator 23.1.0, SVG Export Plug-In . SVG Version: 6.00 Build 0)  -->
<svg version="1.1" id="Layer_1" xmlns="http://www.w3.org/2000/svg" xmlns:xlink="http://www.w3.org/1999/xlink" x="0px" y="0px"
	 viewBox="0 0 27 26" style="enable-background:new 0 0 27 26;" xml:space="preserve">
<style type="text/css">
	.st0{fill:#364DEF;}
</style>
<path class="st0" d="M25.2,11.1l-2.1-1.7c-0.2-0.1-0.3-0.3-0.4-0.5c-0.1-0.2-0.1-0.4-0.1-0.6l0.3-2.7c0-0.4,0-0.7-0.1-1
	c-0.1-0.3-0.3-0.6-0.6-0.9c-0.3-0.3-0.6-0.4-0.9-0.6c-0.3-0.1-0.7-0.2-1-0.1l-2.7,0.3c-0.2,0-0.4,0-0.6-0.1
	c-0.2-0.1-0.4-0.2-0.5-0.4l-1.7-2.1c-0.2-0.3-0.5-0.5-0.8-0.6C13.7,0.1,13.4,0,13,0c-0.4,0-0.7,0.1-1,0.2c-0.3,0.1-0.6,0.4-0.8,0.6
	L9.5,2.9C9.4,3.1,9.2,3.2,9,3.3S8.6,3.4,8.4,3.4L5.7,3.1c-0.4,0-0.7,0-1,0.1S4.1,3.5,3.8,3.8C3.6,4,3.4,4.3,3.3,4.7
	C3.1,5,3.1,5.4,3.1,5.7l0.3,2.7c0,0.2,0,0.4-0.1,0.6C3.3,9.2,3.1,9.3,3,9.5l-2.1,1.7c-0.3,0.2-0.5,0.5-0.7,0.8C0.1,12.3,0,12.6,0,13
	c0,0.4,0.1,0.7,0.2,1c0.2,0.3,0.4,0.6,0.7,0.8L3,16.5c0.2,0.1,0.3,0.3,0.4,0.5c0.1,0.2,0.1,0.4,0.1,0.6l-0.3,2.7c0,0.4,0,0.7,0.1,1
	c0.1,0.3,0.3,0.6,0.6,0.9c0.3,0.3,0.6,0.4,0.9,0.6c0.3,0.1,0.7,0.2,1,0.1l2.7-0.3c0.2,0,0.4,0,0.6,0.1c0.2,0.1,0.4,0.2,0.5,0.4
	l1.7,2.1c0.2,0.3,0.5,0.5,0.8,0.7c0.3,0.2,0.7,0.2,1,0.2c0.4,0,0.7-0.1,1-0.2c0.3-0.2,0.6-0.4,0.8-0.7l1.7-2.1
	c0.1-0.2,0.3-0.3,0.5-0.4c0.2-0.1,0.4-0.1,0.6-0.1l2.7,0.3c0.4,0,0.7,0,1-0.1c0.3-0.1,0.6-0.3,0.9-0.6c0.3-0.3,0.4-0.6,0.6-0.9
	c0.1-0.3,0.2-0.7,0.1-1l-0.3-2.7c0-0.2,0-0.4,0.1-0.6c0.1-0.2,0.2-0.4,0.4-0.5l2.1-1.7c0.3-0.2,0.5-0.5,0.7-0.8
	c0.2-0.3,0.2-0.7,0.2-1c0-0.4-0.1-0.7-0.2-1C25.7,11.6,25.4,11.4,25.2,11.1L25.2,11.1z M13.5,16.5c-0.2,0.2-0.4,0.4-0.6,0.5
	c-0.3,0.1-0.5,0.2-0.8,0.2c-0.3,0-0.6,0-0.8-0.1c-0.3-0.1-0.5-0.3-0.7-0.5l-2.8-2.8c-0.1-0.1-0.2-0.2-0.3-0.4
	c-0.1-0.1-0.1-0.3-0.1-0.4c0-0.2,0-0.3,0.1-0.4c0.1-0.1,0.1-0.3,0.2-0.4C7.8,12.2,7.9,12.1,8,12C8.2,12,8.3,12,8.5,12
	c0.2,0,0.3,0,0.4,0.1c0.1,0.1,0.3,0.1,0.4,0.3l2.5,2.5L16.3,9c0.2-0.2,0.4-0.4,0.7-0.4c0.1,0,0.3,0,0.4,0c0.1,0,0.3,0.1,0.4,0.2
	c0.1,0.1,0.2,0.2,0.3,0.3c0.1,0.1,0.1,0.3,0.1,0.4c0,0.1,0,0.3,0,0.4c0,0.1-0.1,0.3-0.2,0.4L13.5,16.5z"/>
</svg>
