<?xml version="1.0" encoding="utf-8"?>
<!-- Generator: Adobe Illustrator 23.1.0, SVG Export Plug-In . SVG Version: 6.00 Build 0)  -->
<svg version="1.1" id="Layer_1" xmlns="http://www.w3.org/2000/svg" xmlns:xlink="http://www.w3.org/1999/xlink" x="0px" y="0px"
	 viewBox="0 0 500 500" style="enable-background:new 0 0 500 500;" xml:space="preserve">
<style type="text/css">
	.st0{fill:#EBEBEB;}
	.st1{fill:#E6E6E6;}
	.st2{fill:#F0F0F0;}
	.st3{fill:#FAFAFA;}
	.st4{fill:#FFFFFF;}
	.st5{opacity:0.5;fill:#E0E0E0;enable-background:new    ;}
	.st6{fill:#F5F5F5;}
	.st7{fill:#E0E0E0;}
	.st8{fill:#2E7EED;}
	.st9{opacity:0.3;fill:#FFFFFF;enable-background:new    ;}
	.st10{opacity:0.5;}
	.st11{opacity:0.2;fill:#364DEF;enable-background:new    ;}
	.st12{fill:#FFB573;}
	.st13{fill:#263238;}
	.st14{opacity:0.2;enable-background:new    ;}
	.st15{fill:#1A1D1E;}
	.st16{opacity:0.3;enable-background:new    ;}
	.st17{fill:#ED893E;}
</style>
<g id="freepik--background-complete--inject-2">
	<rect x="155.6" y="353" class="st0" width="86.8" height="0.3"/>
	<rect x="245.1" y="60.8" class="st1" width="180.4" height="158.5"/>
	<rect x="247.4" y="60.8" class="st2" width="183" height="158.5"/>
	<rect x="245.1" y="219.4" class="st1" width="180.4" height="4.4"/>
	<rect x="255.2" y="219.4" class="st2" width="183" height="4.4"/>
	<rect x="253.9" y="67.4" class="st3" width="169.8" height="145.4"/>
	<polygon class="st4" points="276.8,212.8 295.4,67.4 327.9,67.4 309.1,212.8 	"/>
	<polygon class="st4" points="316.1,212.8 334.8,67.4 347.4,67.4 328.7,212.8 	"/>
	<rect x="422.9" y="67.4" class="st1" width="0.8" height="145.4"/>
	<polygon class="st5" points="431.9,99.9 251.4,99.9 250.9,88.5 431.2,88.5 	"/>
	<polygon class="st5" points="431.9,136.9 251.4,136.9 250.9,125.7 431.2,125.7 	"/>
	<polygon class="st5" points="431.9,174.1 251.4,174.1 250.9,162.8 431.2,162.8 	"/>
	<rect x="90.4" y="94.1" class="st6" width="57.4" height="111.5"/>
	<rect x="95.2" y="100.6" class="st4" width="47.9" height="98.6"/>
	<rect x="165" y="79.6" class="st7" width="54.8" height="109"/>
	<rect x="165.7" y="77.1" class="st6" width="57.6" height="111.5"/>
	<rect x="170.5" y="83.6" class="st4" width="47.9" height="98.6"/>
	<rect x="186" y="238.4" class="st1" width="23.7" height="102.7"/>
	<polygon class="st2" points="205.3,341.2 209.8,341.2 209.8,330.8 200.6,330.8 	"/>
	<rect x="117.1" y="238.4" class="st2" width="92.6" height="96.2"/>
	<rect x="165" y="244.9" class="st1" width="41.3" height="76.8"/>
	<path class="st2" d="M145.4,247.8h-8.2c-3.4,0-6.7-1.1-9.3-3.4h26.9C152.1,246.7,148.8,247.8,145.4,247.8z"/>
	<path class="st2" d="M190.1,247.8H182c-3.4,0-6.7-1.1-9.3-3.4h26.9C196.8,246.7,193.5,247.8,190.1,247.8z"/>
	<polygon class="st2" points="121.7,341.2 117.1,341.2 117.1,330.8 126.4,330.8 	"/>
	<path class="st1" d="M138.9,228.6c0,0,0.8,9.8,27.7,9.8s27.7-9.8,27.7-9.8H138.9z"/>
	<rect x="245.3" y="255.6" class="st0" width="202.7" height="16.9"/>
	<rect x="245.3" y="255.6" class="st7" width="57.6" height="16.9"/>
	<rect x="436" y="272.7" class="st0" width="12.2" height="68.6"/>
	<polygon class="st7" points="435.9,277.4 448,274.9 448,272.7 435.9,272.7 	"/>
	<rect x="245.3" y="272.7" class="st7" width="12.2" height="68.6"/>
	<rect x="290.7" y="272.7" class="st0" width="12.2" height="68.6"/>
	<polygon class="st7" points="290.7,277.4 302.9,274.9 302.9,272.7 290.7,272.7 	"/>
</g>
<g id="freepik--Shadow--inject-2">
	<ellipse id="freepik--path--inject-2" class="st6" cx="265.4" cy="372.5" rx="179.7" ry="10.5"/>
</g>
<g id="freepik--Smartphone--inject-2">
	<path class="st8" d="M249.2,106.7H138.7c-7-0.1-12.7,5.6-12.8,12.5c0,0.4,0,0.8,0,1.1L141.7,356c0.6,7.6,7,13.6,14.5,13.6h110.5
		c7,0.1,12.7-5.4,12.8-12.4c0-0.4,0-0.8,0-1.2l-15.8-235.7C263.1,112.7,256.8,106.9,249.2,106.7z"/>
	<path class="st9" d="M249.2,106.7H138.7c-7-0.1-12.7,5.6-12.8,12.5c0,0.4,0,0.8,0,1.1L141.7,356c0.6,7.6,7,13.6,14.5,13.6h110.5
		c7,0.1,12.7-5.4,12.8-12.4c0-0.4,0-0.8,0-1.2l-15.8-235.7C263.1,112.7,256.8,106.9,249.2,106.7z"/>
	
		<rect x="126" y="157.2" transform="matrix(0.9978 -6.696448e-02 6.696448e-02 0.9978 -10.9923 8.8479)" class="st8" width="0.9" height="22.4"/>
	
		<rect x="127.9" y="191.2" transform="matrix(0.9977 -6.715041e-02 6.715041e-02 0.9977 -12.8856 9.0594)" class="st8" width="0.9" height="10"/>
	<path class="st8" d="M149.9,358.4c0.2,2.1-1.4,3.8-3.4,4c-1.7,0.2-3.2-0.8-3.8-2.5c-0.5-1.3-0.8-2.6-0.8-3.9L126,120.3
		c-0.1-1.3,0-2.7,0.3-4c0.5-2.1,2.4-3.2,4.4-2.9c1.7,0.4,2.9,1.8,3,3.4L149.9,358.4z"/>
	<path class="st4" d="M266.9,365.2H164.3c-5.3-0.2-9.6-4.1-10.1-9.4l-15.8-235.7c-0.4-4.4,2.9-8.4,7.4-8.8c0.3,0,0.5,0,0.8,0h102.7
		c5.3,0.2,9.6,4.1,10.1,9.4l15.8,235.7c0.4,4.4-3,8.4-7.4,8.8C267.5,365.2,267.2,365.2,266.9,365.2L266.9,365.2z M146.5,112.2
		c-4-0.1-7.2,3.1-7.3,7c0,0.3,0,0.5,0,0.8L155,355.7c0.5,4.7,4.4,8.4,9.1,8.5h102.7c4,0.1,7.2-3.1,7.3-7c0-0.3,0-0.5,0-0.8
		l-15.8-235.7c-0.5-4.7-4.4-8.4-9.1-8.5L146.5,112.2z"/>
	<g class="st10">
		
			<ellipse transform="matrix(0.6871 -0.7266 0.7266 0.6871 -70.482 209.3223)" class="st8" cx="207.8" cy="186.5" rx="41.3" ry="46.2"/>
		
			<ellipse transform="matrix(0.6871 -0.7266 0.7266 0.6871 -70.4805 209.3179)" class="st4" cx="207.8" cy="186.5" rx="33" ry="36.9"/>
		
			<ellipse transform="matrix(0.6872 -0.7265 0.7265 0.6872 -70.4725 209.2646)" class="st8" cx="207.8" cy="186.5" rx="24.7" ry="27.7"/>
		
			<ellipse transform="matrix(0.6871 -0.7266 0.7266 0.6871 -70.4805 209.3179)" class="st4" cx="207.8" cy="186.5" rx="16.5" ry="18.5"/>
		
			<ellipse transform="matrix(0.6872 -0.7265 0.7265 0.6872 -70.474 209.2689)" class="st8" cx="207.8" cy="186.5" rx="8.3" ry="9.3"/>
	</g>
	<path class="st4" d="M216.2,245.9c-0.2,0-0.4,0-0.5,0c-2.6-5-7.7-8.1-13.3-8.3c-1.4,0-2.9,0.2-4.1,0.6c-2.7-5-7.9-8-13.6-8.1
		c-7.3-0.1-13.3,5.7-13.4,13.1c0,0,0,0,0,0.1c-5.7,0.4-10.1,5.3-9.7,10.9c0,0.1,0,0.2,0,0.3c0.5,6.3,5.7,11.2,12,11.3h44.1
		c5.1,0.1,9.3-4,9.3-9.1c0-0.3,0-0.5,0-0.8C226.5,250.2,221.8,245.9,216.2,245.9z"/>
	<path class="st4" d="M244.3,138.1h-0.4c-2.1-3.9-6-6.4-10.4-6.4c-1.1,0-2.2,0.2-3.2,0.5c-2.1-3.9-6.1-6.3-10.6-6.4
		c-5.7-0.1-10.4,4.4-10.5,10.2c-4.4,0.3-7.9,4.1-7.6,8.5c0,0.1,0,0.1,0,0.2c0.4,4.9,4.4,8.7,9.3,8.8h34.4c4,0.1,7.2-3.1,7.2-7
		c0-0.3,0-0.5,0-0.8C252.3,141.4,248.7,138.1,244.3,138.1z"/>
	<path class="st9" d="M258,282.4h-63.5c-1.8,0-3.4,1.5-3.4,3.2c0,0.1,0,0.2,0,0.3l2.6,37.9c0.2,2.1,1.8,3.5,3.8,3.6h8.5l0.8,10.5
		l9.7-10.5H261c1.8,0,3.4-1.4,3.4-3.2c0-0.1,0-0.2,0-0.4l-2.6-37.9C261.6,283.9,260,282.4,258,282.4z"/>
	<polygon class="st4" points="257.5,307.2 198.4,307.2 198.1,302.5 257.2,302.5 	"/>
	<polygon class="st4" points="239.5,317.2 199,317.2 198.7,312.4 239.1,312.4 	"/>
	<polygon class="st4" points="256.9,297.3 197.7,297.3 197.4,292.5 256.5,292.5 	"/>
</g>
<g id="freepik--Character--inject-2">
	<path class="st8" d="M307.7,122.1l2.4,1.8c0.8,0.6,1.7,1.2,2.6,1.8c1.8,1.1,3.4,2.3,5.2,3.4c1.8,1,3.5,2.1,5.3,2.9
		c1.7,0.8,3.4,1.5,5.1,2.1c-0.4-0.1-0.8-0.1-1.2-0.1c-0.3,0-0.5,0.1-0.6,0.2c-0.3,0.1-0.2,0.2,0,0.1c0.5-0.4,1-0.8,1.4-1.3
		c1.2-1.5,2.3-3,3.4-4.7c1.1-1.7,2.1-3.5,3.1-5.4c1-1.8,1.9-3.8,2.9-5.6l0.1-0.1c1-2.1,3.5-2.9,5.7-1.8c1.8,0.9,2.7,3,2.1,4.8
		c-1.3,4.4-2.9,8.7-4.7,12.9c-1,2.2-2.2,4.4-3.7,6.4c-0.8,1.3-1.8,2.4-3.1,3.4c-0.8,0.8-1.8,1.3-2.8,1.8c-0.8,0.3-1.5,0.5-2.2,0.5
		c-0.9,0.1-1.8,0.1-2.8-0.2c-2.5-0.5-4.9-1.4-7.2-2.3c-2.2-0.9-4.4-1.9-6.4-3.1c-2.1-1.1-4.1-2.2-6-3.4c-0.9-0.6-1.9-1.2-2.9-1.8
		c-1-0.6-1.8-1.3-2.9-2.1c-2.6-2.4-2.8-6.5-0.4-9.2c2.1-2.2,5.4-2.7,8-1.2L307.7,122.1z"/>
	<path class="st11" d="M307.7,122.1l2.4,1.8c0.8,0.6,1.7,1.2,2.6,1.8c1.8,1.1,3.4,2.3,5.2,3.4c1.8,1,3.5,2.1,5.3,2.9
		c1.7,0.8,3.4,1.5,5.1,2.1c-0.4-0.1-0.8-0.1-1.2-0.1c-0.3,0-0.5,0.1-0.6,0.2c-0.3,0.1-0.2,0.2,0,0.1c0.5-0.4,1-0.8,1.4-1.3
		c1.2-1.5,2.3-3,3.4-4.7c1.1-1.7,2.1-3.5,3.1-5.4c1-1.8,1.9-3.8,2.9-5.6l0.1-0.1c1-2.1,3.5-2.9,5.7-1.8c1.8,0.9,2.7,3,2.1,4.8
		c-1.3,4.4-2.9,8.7-4.7,12.9c-1,2.2-2.2,4.4-3.7,6.4c-0.8,1.3-1.8,2.4-3.1,3.4c-0.8,0.8-1.8,1.3-2.8,1.8c-0.8,0.3-1.5,0.5-2.2,0.5
		c-0.9,0.1-1.8,0.1-2.8-0.2c-2.5-0.5-4.9-1.4-7.2-2.3c-2.2-0.9-4.4-1.9-6.4-3.1c-2.1-1.1-4.1-2.2-6-3.4c-0.9-0.6-1.9-1.2-2.9-1.8
		c-1-0.6-1.8-1.3-2.9-2.1c-2.6-2.4-2.8-6.5-0.4-9.2c2.1-2.2,5.4-2.7,8-1.2L307.7,122.1z"/>
	<path class="st12" d="M339.4,115.6l2.5-4.3l4.8,5.2c-0.8,1.5-1.9,2.7-3.5,3.4c-0.8,0.3-1.5,0.1-2.1-0.3l-0.9-0.5
		C339.1,118.2,338.7,116.7,339.4,115.6z"/>
	<path class="st12" d="M348.7,108.8l1,0.6c1.2,0.8,1.6,2.3,0.8,3.4c-0.1,0.2-0.3,0.4-0.5,0.5l-3.4,3.1l-4.8-5.2l4.1-2.5
		C346.9,108.3,347.9,108.3,348.7,108.8z"/>
	<polygon class="st12" points="248.7,365 256.1,365.3 258.8,348.2 251.6,348.1 	"/>
	<path class="st13" d="M257.3,363.1l-8.3-1c-0.3,0-0.5,0.2-0.5,0.5l-1.2,6.4c-0.1,0.8,0.4,1.4,1.1,1.5c2.9,0.3,4.3,0.3,7.9,0.8
		c2.2,0.3,8,1.7,11,1.3c3.1-0.4,2.6-3.4,1.3-3.5c-5.9-0.5-8.3-3.4-10.1-5.3C258.1,363.4,257.8,363.2,257.3,363.1z"/>
	<polygon class="st14" points="251.6,348.1 258.8,348.2 257.5,357 250.1,356.8 	"/>
	<path class="st15" d="M291.7,185.2c0,0-6.4,60.8-10.6,81.5c-4.7,22.6-19.7,88.7-19.7,88.7l-13.4-1c0,0,7.3-68.4,13.3-90.5
		c0-23,5.6-87.4,5.6-87.4L291.7,185.2z"/>
	<path class="st16" d="M270.2,205.7c-0.1-4.7-2.7-6.3-5.2-6.2c-0.9,11.4-1.9,25.5-2.7,38C266.8,230.3,270.6,218.9,270.2,205.7z"/>
	<polygon class="st4" points="247.5,354.4 261.9,355.5 263.6,350.1 247,349.9 	"/>
	<polygon class="st12" points="174.3,308 179,313.8 192.8,303.7 188.2,298.1 	"/>
	<path class="st13" d="M180,313.8l-4.1-7.1c-0.1-0.3-0.5-0.4-0.8-0.2l-5.8,2.9c-0.6,0.4-0.8,1.1-0.5,1.8c1.5,2.5,2.3,3.6,4.1,6.7
		c1.1,1.9,4.1,7.5,5.6,10.2c1.5,2.7,4.1,1.1,3.7-0.2c-1.8-5.7-2.4-10.1-2.1-12.7C180.3,314.7,180.2,314.2,180,313.8z"/>
	<polygon class="st14" points="188.2,298.1 192.8,303.9 185.7,308.9 181.1,303.2 	"/>
	<path class="st15" d="M278.2,180c0,0-18.1,51.7-26.3,71c-9,21.3-62.6,59-62.6,59l-8.4-10.5c0,0,36.5-36.6,50.1-53.9
		c7.5-23.7,23.5-74.3,23.5-74.3L278.2,180z"/>
	<polygon class="st4" points="180.5,299.2 189.6,310.5 194.2,307.9 183.4,295.9 	"/>
	<path class="st2" d="M291.5,185.5l-37.3-14.1c0.9-3.4,5.8-13.3,10.1-27.3c3.2-10.3,5.7-20.8,7.1-31.5l0,0c0.2-1.3,1.3-2.1,2.6-2.1
		h0.1c0.8,0.1,1.5,0.3,2.4,0.5c2.3,0.5,5.3,1.1,8,1.9c5.4,1.6,10.6,3.4,15.8,5.7c1.8,0.8,3.4,1.7,5,2.6c0.9,0.5,1.8,1.2,2.7,1.9
		c0.5,0.5,0.9,1.2,1,1.9C309.2,130.5,303.9,151.1,291.5,185.5z"/>
	<path class="st12" d="M299.8,118.4c-4.1-2.7-4-5.8-2.6-8.8c0.4-0.8,0.8-1.5,1.2-2.1l-4.1-6.7l-3-5c-0.6,5.4-2.6,15.2-7.2,17.3
		c2.5,3.6,6.1,6.2,10.3,7.6C301.3,122.7,299.8,118.4,299.8,118.4z"/>
	<polygon class="st7" points="294.2,120.4 294.1,118.6 289.5,119.6 	"/>
	<polygon class="st7" points="294.2,120.4 295.1,118.9 298,122.7 	"/>
	<path class="st4" d="M284.8,112.1c2.8,2.6,5.9,4.8,9.3,6.6c-1.8,1.1-3.6,4.1-4.3,6.6c-1.5-1-7.5-10.9-8.3-13.6L284.8,112.1z"/>
	<path class="st4" d="M298.9,117.2c-1.1,0.9-2.4,1.5-3.9,1.7c1,1.5,1.8,5.2,1.8,7.4c1.8-1.1,4.4-5.1,4.8-6.9L298.9,117.2z"/>
	<path class="st16" d="M299,117.2c0,0,4.1,1.9,7.6,4.1c3,1.8,4.4,5.4,3.5,8.9c-4.4,15.7-10.4,30.8-12.9,39.2
		c-2.6,9-6.3,20.3-6.3,20.3l-6.3,1.5C284.7,191.2,300.6,130.7,299,117.2z"/>
	<path class="st16" d="M284.7,111.4c0,0-5.4-0.8-10.2-0.9c-3.4-0.2-6.5,2.1-7.3,5.4c-2.4,9.6-4.1,27.7-6.6,34.8
		c-3.1,8.9-7.1,26.1-7.1,26.1l21.6,12.4C275,189.3,296.7,122.5,284.7,111.4z"/>
	<path class="st8" d="M284.7,111.4c0,0-5.4-0.8-10.2-0.9c-3.4-0.2-6.5,2.1-7.3,5.4c-2.4,9.6-5.7,27.3-8.1,34.4
		c-3.1,8.9-9.6,23.9-9.6,23.9l27.2,12.8C276.6,186.9,296.7,122.5,284.7,111.4z"/>
	<path class="st11" d="M284.7,111.4c0,0-5.4-0.8-10.2-0.9c-3.4-0.2-6.5,2.1-7.3,5.4c-2.4,9.6-5.7,27.3-8.1,34.4
		c-3.1,8.9-9.6,23.9-9.6,23.9l27.2,12.8C276.6,186.9,296.7,122.5,284.7,111.4z"/>
	<path class="st8" d="M299,117.2c0,0,4.1,1.9,7.6,4.1c3,1.8,4.4,5.4,3.5,8.9c-4.4,15.7-7.9,32-9.6,40.6c-1.8,9.2-3.8,17.5-3.8,17.5
		l-10.2,1.4C286.6,189.7,300.6,130.7,299,117.2z"/>
	<path class="st11" d="M299,117.2c0,0,4.1,1.9,7.6,4.1c3,1.8,4.4,5.4,3.5,8.9c-4.4,15.7-7.9,32-9.6,40.6c-1.8,9.2-3.8,17.5-3.8,17.5
		l-10.2,1.4C286.6,189.7,300.6,130.7,299,117.2z"/>
	<path class="st14" d="M298.4,107.4c-0.5,0.8-0.8,1.4-1.2,2.2c-1.9-1.2-4-4.4-3.5-6.7c0.2-0.8,0.4-1.5,0.8-2.2L298.4,107.4z"/>
	<path class="st13" d="M304.2,79.3c4.9,0.6,6.7,7.3,4,11.6C303.7,84.5,304.2,79.3,304.2,79.3z"/>
	<path class="st12" d="M288.8,91.5c1.7,7.1,2.3,11.4,6.6,14.5c4.1,3.1,10.1,2.4,13.3-1.8c1.2-1.6,1.8-3.4,1.9-5.3
		c0.5-6.7-2.3-17.2-9.9-19.1c-5.1-1.5-10.5,1.6-11.9,6.7C288.4,88.2,288.4,89.9,288.8,91.5z"/>
	<path class="st13" d="M291,97.9c4.3,0.1,3.6-7,1.8-9.6c5.9,0.9,15.8-4.4,16.8-9.8c1.4-8-10.7-8-14.6-5.4c1.7,0.1,2.6,1.6,2.1,2.3
		c0,0-5.8-1.8-9.6,0.3c1.7,0.6,3.4,3-2.9,3.8c-6,0.8-4.1,6.7-1.2,6.7c-1.6,2.5-3.5,8,0.1,10.5s6.1,5.4,5.4,6.7
		C290,103.2,292.7,101.6,291,97.9z"/>
	<path class="st13" d="M284.2,85.4c-2.9,0.3-4.5,2.5-4.7,5.6C280.7,88.8,282.3,87,284.2,85.4z"/>
	<path class="st12" d="M287.1,98c0.8,1.5,1.9,2.6,3.5,3.1c2.1,0.8,3.1-1,2.6-3.1c-0.5-1.8-2.1-4.4-4.1-4.1
		C287,94.1,286.2,96.1,287.1,98z"/>
	<path class="st13" d="M300.1,92.1c0.1,0.5,0.5,1,0.8,0.9c0.4-0.1,0.6-0.5,0.5-1.1c-0.1-0.5-0.5-1-0.9-0.9
		C300.1,91.1,300,91.5,300.1,92.1z"/>
	<path class="st13" d="M306.8,91.2c0.1,0.5,0.5,1,0.8,0.9c0.4-0.1,0.6-0.5,0.5-1.2c-0.1-0.6-0.5-1-0.9-0.9
		C306.8,90.1,306.7,90.6,306.8,91.2z"/>
	<path class="st17" d="M304.6,91.8c1,1.7,2.2,3.2,3.6,4.7c-0.8,1.1-2.7,0.9-2.7,0.9L304.6,91.8z"/>
	<path class="st13" d="M303.4,99.2c-1.4,0-2.7-0.5-3.7-1.5c-0.1-0.1-0.1-0.2,0-0.3s0.2-0.1,0.3,0l0,0c1.1,1,2.6,1.6,4.1,1.3
		c0.1,0,0.2,0,0.2,0.1s0,0.2-0.1,0.2c0,0,0,0-0.1,0C303.9,99.2,303.7,99.2,303.4,99.2z"/>
	<path class="st13" d="M301.6,101.2c-1.1-0.8-1.8-2.1-2.1-3.4c0-0.1,0.1-0.2,0.2-0.2c0.1,0,0.2,0.1,0.2,0.2l0,0
		c0.2,1.5,1.1,2.8,2.4,3.5c0.1,0,0.1,0.2,0.1,0.2l0,0c-0.1,0.1-0.2,0.1-0.3,0.1l0,0C302,101.3,301.7,101.2,301.6,101.2z"/>
	<path class="st13" d="M297.7,90.2c-0.1,0-0.1,0-0.2,0c-0.2-0.1-0.3-0.3-0.2-0.5l0,0c0.5-1,1.5-1.7,2.6-1.8c0.2,0,0.4,0.1,0.4,0.3
		l0,0c0,0.2-0.1,0.4-0.3,0.4l0,0c-0.8,0.1-1.6,0.6-2.1,1.5C298,90.1,297.7,90.2,297.7,90.2z"/>
	<path class="st13" d="M309.1,88.5c-0.1,0-0.2-0.1-0.3-0.2c-0.5-0.8-1.3-1.2-2.2-1.3c-0.2,0-0.3-0.2-0.3-0.4c0-0.2,0.2-0.3,0.3-0.3
		l0,0c1.1,0.1,2.1,0.6,2.8,1.6c0.1,0.2,0.1,0.4-0.1,0.5l0,0C309.4,88.5,309.2,88.5,309.1,88.5z"/>
	<path class="st8" d="M276.5,122.5c-1.8,1.5-3.8,3.1-5.7,4.8c-1.8,1.7-3.8,3.4-5.6,5c-3.6,3.4-7,6.9-10,10.6l-1,1.4l-0.1,0.2
		l0.1-0.1c0.1-0.1,0.1-0.2,0.1-0.4c0.1-0.2,0.1-0.4,0.1-0.5c0-0.3-0.1-0.3,0-0.2c0,0.3,0.1,0.5,0.3,0.8c0.4,0.8,0.8,1.7,1.4,2.5
		c0.6,0.9,1.3,1.8,2.1,2.7c1.5,1.8,3.1,3.6,4.9,5.4c1.8,1.8,3.6,3.5,5.4,5.2l0.1,0.1c1.7,1.6,1.8,4.1,0.3,5.8
		c-1.4,1.6-3.7,1.8-5.4,0.6c-4.7-3-9-6.3-12.9-10.1c-1-1-2.1-2.1-3-3.2c-1-1.3-1.9-2.6-2.8-4.1c-0.5-0.9-0.8-1.8-1.2-2.8
		c-0.4-1.3-0.5-2.7-0.5-4c0.1-0.8,0.3-1.7,0.5-2.5c0.2-0.4,0.4-0.8,0.5-1.2l0.4-0.5l0.2-0.2l1.2-1.8c3.2-4.4,6.7-8.7,10.6-12.6
		c1.8-1.9,3.8-3.8,5.7-5.7c1.9-1.8,3.9-3.6,6.1-5.4c3.1-1.8,7-0.8,8.9,2.3C278.7,117.2,278.5,120.3,276.5,122.5L276.5,122.5z"/>
	<path class="st11" d="M276.5,122.5c-1.8,1.5-3.8,3.1-5.7,4.8c-1.8,1.7-3.8,3.4-5.6,5c-3.6,3.4-7,6.9-10,10.6l-1,1.4l-0.1,0.2
		l0.1-0.1c0.1-0.1,0.1-0.2,0.1-0.4c0.1-0.2,0.1-0.4,0.1-0.5c0-0.3-0.1-0.3,0-0.2c0,0.3,0.1,0.5,0.3,0.8c0.4,0.8,0.8,1.7,1.4,2.5
		c0.6,0.9,1.3,1.8,2.1,2.7c1.5,1.8,3.1,3.6,4.9,5.4c1.8,1.8,3.6,3.5,5.4,5.2l0.1,0.1c1.7,1.6,1.8,4.1,0.3,5.8
		c-1.4,1.6-3.7,1.8-5.4,0.6c-4.7-3-9-6.3-12.9-10.1c-1-1-2.1-2.1-3-3.2c-1-1.3-1.9-2.6-2.8-4.1c-0.5-0.9-0.8-1.8-1.2-2.8
		c-0.4-1.3-0.5-2.7-0.5-4c0.1-0.8,0.3-1.7,0.5-2.5c0.2-0.4,0.4-0.8,0.5-1.2l0.4-0.5l0.2-0.2l1.2-1.8c3.2-4.4,6.7-8.7,10.6-12.6
		c1.8-1.9,3.8-3.8,5.7-5.7c1.9-1.8,3.9-3.6,6.1-5.4c3.1-1.8,7-0.8,8.9,2.3C278.7,117.2,278.5,120.3,276.5,122.5L276.5,122.5z"/>
	<path class="st12" d="M269.8,161.3l6.3,3.9l-8,4.5c0,0-5.4-4-3.1-6.6l2.7-1.8C268.3,160.9,269.1,160.9,269.8,161.3z"/>
	<path class="st12" d="M276.4,172.2l-3.4,2.1c-1,0.5-2.2,0.3-2.9-0.8c0,0,0,0,0-0.1l-2.1-3.7l8-4.5l1.3,4.7
		C277.7,170.8,277.2,171.8,276.4,172.2z"/>
</g>
<g id="freepik--Megaphone--inject-2">
	<path class="st8" d="M336.7,106.8l8.5-1.7c-2.3,4.1,1.1,8,4.1,10.6c1.5,1.2,0.5,3.4-1.8,3.7l-5.6,1.1
		C335.3,121.8,336.7,106.8,336.7,106.8z"/>
	<path class="st8" d="M333.3,107.4l19.5-3.8c6.4-1.3,10.5-7.4,9.3-13.8l0,0c-1.3-6.4-7.4-10.5-13.8-9.3l-19.5,3.8
		c-6.4,1.3-10.5,7.4-9.3,13.8l0,0C320.8,104.6,327,108.7,333.3,107.4z"/>
	<path class="st9" d="M333.3,107.4l19.5-3.8c6.4-1.3,10.5-7.4,9.3-13.8l0,0c-1.3-6.4-7.4-10.5-13.8-9.3l-19.5,3.8
		c-6.4,1.3-10.5,7.4-9.3,13.8l0,0C320.8,104.6,327,108.7,333.3,107.4z"/>
	<path class="st8" d="M386.5,111.4l-33.4-0.5c-2.9,0.5-10.2-36.9-7.3-37.4l30.7-12.9L386.5,111.4z"/>
	<path class="st8" d="M379,86.5c2.8,14.1,6.2,25.2,7.7,25c1.5-0.3,0.5-11.9-2.3-26s-6.2-25.2-7.7-25C375.1,60.8,376.1,72.5,379,86.5
		z"/>
	<path class="st16" d="M379,86.5c2.8,14.1,6.2,25.2,7.7,25c1.5-0.3,0.5-11.9-2.3-26s-6.2-25.2-7.7-25
		C375.1,60.8,376.1,72.5,379,86.5z"/>
	<path class="st8" d="M391.4,84.8c-0.6-3.4-8.3-4.8-10-4.5c-1.7,0.3-2.4,3.4-1.8,6.7c0.6,3.4,2.6,5.9,4.1,5.7
		C385.4,92.4,392,88.2,391.4,84.8z"/>
	<rect x="399.4" y="79.4" transform="matrix(0.9872 -0.1597 0.1597 0.9872 -7.3439 68.3218)" class="st8" width="44" height="1"/>
	<rect x="393.1" y="64.7" transform="matrix(0.761 -0.6488 0.6488 0.761 54.4909 278.2144)" class="st8" width="23.3" height="1"/>
	<rect x="424.8" y="102.1" transform="matrix(0.3328 -0.943 0.943 0.3328 184.1522 471.4877)" class="st8" width="1" height="7"/>
	<rect x="406.1" y="90.5" transform="matrix(0.318 -0.9481 0.9481 0.318 183.1805 453.1675)" class="st8" width="1" height="17.5"/>
</g>
</svg>
